<svg width="811" height="372" viewBox="0 0 811 372" fill="none" xmlns="http://www.w3.org/2000/svg">
<g clip-path="url(#clip0_319_120)">
<path d="M0 112.024C0 64.1596 35.0798 25.5617 81.0018 25.5617C94.7509 25.5617 102.765 29.4883 108.068 29.4883C113.371 29.4883 115.178 25.7973 120.285 25.7973C124.292 25.7973 126.727 28.114 129.399 38.0481C131.834 46.1368 134.27 55.8353 136.273 69.696C137.177 75.9392 136.037 79.6301 131.166 80.1013C126.492 80.5725 124.488 76.8816 120.049 69.9316C109.836 54.4611 96.9507 41.0323 77.427 41.0323C49.0253 41.0323 31.9372 65.7695 31.9372 97.4174C31.9372 137.389 52.5608 171.354 87.4442 171.354C105.868 171.354 119.185 163.03 130.931 149.876C136.273 143.868 142.48 150.347 138.709 157.729C130.499 175.281 107.204 191.929 76.7985 191.929C31.5051 191.968 0 160.988 0 112.024Z" fill="#D9CEC1"/>
<path d="M405.048 71.1096C400.845 72.4839 398.174 70.4028 394.403 64.3952C385.76 49.8277 376.411 42.4459 361.994 42.4459H351.78C335.124 42.4459 332.021 45.6656 332.021 52.8512V78.9626C332.021 88.6612 337.363 90.2711 346.909 90.2711H351.113C369.772 90.2711 368.201 82.418 375.743 82.418C379.946 82.418 381.518 85.2058 382.382 89.368L387.921 115.479C389.492 123.804 388.353 125.885 384.15 127.023C373.7 129.576 372.404 104.603 351.073 104.603H346.87C337.324 104.603 331.982 105.977 331.982 115.911V151.054C331.982 178.54 345.966 172.1 345.966 183.173C345.966 188.042 342.863 189.652 333.749 189.652H298.473C289.595 189.652 286.06 188.042 286.06 183.173C286.06 172.1 300.712 178.54 300.712 151.054V67.183C300.712 37.145 286.06 46.3724 286.06 34.3572C286.06 29.292 289.595 27.8784 298.473 27.8784H383.914C396.799 27.8784 400.099 29.0171 402.573 35.9671C404.577 42.2103 406.777 50.0633 408.348 59.7619C409.448 66.0051 409.016 69.9316 405.009 71.0703L405.048 71.1096Z" fill="#D9CEC1"/>
<path d="M536.411 71.1096C532.208 72.4839 529.536 70.4028 525.765 64.3952C517.123 49.8277 507.774 42.4459 493.357 42.4459H483.143C466.487 42.4459 463.384 45.6656 463.384 52.8512V78.9626C463.384 88.6612 468.726 90.2711 478.272 90.2711H482.475C501.135 90.2711 499.563 82.418 507.106 82.418C511.309 82.418 512.88 85.2058 513.745 89.368L519.284 115.479C520.855 123.804 519.716 125.885 515.512 127.023C505.063 129.576 503.767 104.603 482.436 104.603H478.233C468.687 104.603 463.344 105.977 463.344 115.911V151.054C463.344 178.54 477.329 172.1 477.329 183.173C477.329 188.042 474.226 189.652 465.112 189.652H429.836C420.958 189.652 417.422 188.042 417.422 183.173C417.422 172.1 432.075 178.54 432.075 151.054V67.183C432.075 37.145 417.422 46.3724 417.422 34.3572C417.422 29.292 420.958 27.8784 429.836 27.8784H515.277C528.162 27.8784 531.461 29.0171 533.936 35.9671C535.94 42.2103 538.14 50.0633 539.711 59.7619C540.811 66.0051 540.379 69.9316 536.372 71.0703L536.411 71.1096Z" fill="#D9CEC1"/>
<path d="M672.684 151.996C672.252 164.718 671.113 173.474 669.345 179.953C667.577 186.903 664.238 189.652 650.686 189.652H561.238C552.36 189.652 548.825 188.277 548.825 183.173C548.825 171.158 563.477 180.385 563.477 150.347V67.1438C563.477 37.1058 548.825 46.3331 548.825 34.3179C548.825 29.2527 552.36 27.8391 561.238 27.8391H647.15C660.035 27.8391 663.138 28.9778 665.574 35.9278C667.577 42.171 669.777 50.0241 671.349 59.7226C672.448 65.9658 672.016 69.8923 668.009 71.031C663.806 72.4053 661.135 70.3243 657.56 64.3167C648.918 49.7492 639.569 42.3673 624.916 42.3673H614.467C597.811 42.3673 594.707 45.5871 594.707 53.0082V76.5675C594.707 86.5016 600.05 87.8759 609.595 87.8759H611.795C630.219 87.8759 628.883 80.0228 636.426 80.0228C640.629 80.0228 642.201 82.8106 643.104 86.9728L648.447 113.32C650.214 121.644 649.114 123.725 644.911 124.628C634.265 127.181 632.93 102.443 611.835 102.443H609.635C600.089 102.443 594.746 103.582 594.746 113.752V164.129C594.746 171.747 597.85 175.006 615.842 175.006L630.494 174.77C646.05 174.77 650.686 166.21 658.032 150.033C661.567 142.18 664.474 140.334 668.009 141.238C672.684 142.18 672.881 145.635 672.684 151.878V151.996Z" fill="#D9CEC1"/>
<path d="M810.961 151.996C810.529 164.718 809.389 173.474 807.622 179.953C805.854 186.903 802.515 189.652 788.962 189.652H699.515C690.637 189.652 687.101 188.277 687.101 183.173C687.101 171.158 701.754 180.385 701.754 150.347V67.1438C701.754 37.1058 687.101 46.3331 687.101 34.3179C687.101 29.2527 690.637 27.8391 699.515 27.8391H785.427C798.312 27.8391 801.415 28.9778 803.851 35.9278C805.854 42.171 808.054 50.0241 809.625 59.7226C810.725 65.9658 810.293 69.8923 806.286 71.031C802.083 72.4053 799.411 70.3243 795.837 64.3167C787.194 49.7492 777.845 42.3673 763.192 42.3673H752.743C736.087 42.3673 732.984 45.5871 732.984 53.0082V76.5675C732.984 86.5016 738.326 87.8759 747.872 87.8759H750.111C768.535 87.8759 767.199 80.0228 774.742 80.0228C778.945 80.0228 780.516 82.8106 781.42 86.9728L786.762 113.32C788.53 121.644 787.43 123.725 783.227 124.628C772.581 127.181 771.246 102.443 750.15 102.443H747.911C738.366 102.443 733.023 103.582 733.023 113.752V164.129C733.023 171.747 736.126 175.006 754.118 175.006L768.771 174.77C784.327 174.77 788.962 166.21 796.308 150.033C799.844 142.18 802.751 140.334 806.286 141.238C810.961 142.18 811.157 145.635 810.961 151.878V151.996Z" fill="#D9CEC1"/>
<path d="M190.052 333.638C190.052 360.652 203.369 354.213 203.369 364.147C203.369 368.309 200.265 369.683 191.819 369.683H161.846C153.872 369.683 150.297 368.309 150.297 364.147C150.297 354.213 164.046 360.692 164.046 333.638V300.576C164.046 293.639 151.175 290.171 125.431 290.171C98.509 290.171 85.048 293.639 85.048 300.576V333.638C85.048 360.652 98.6006 354.213 98.6006 364.147C98.6006 368.309 95.4973 369.683 86.855 369.683H57.1177C48.9075 369.683 45.372 368.309 45.372 364.147C45.372 354.213 59.3568 360.692 59.3568 333.638V243.956C59.3568 216.902 45.8041 223.381 45.8041 213.446C45.8041 209.284 48.9075 207.91 57.5498 207.91H87.2871C95.4973 207.91 99.0327 209.284 99.0327 213.446C99.0327 223.381 85.048 216.902 85.048 243.956V267.083C85.048 274.02 98.5875 277.488 125.667 277.488C151.253 277.488 164.046 274.02 164.046 267.083V243.956C164.046 216.902 150.729 223.381 150.729 213.446C150.729 209.284 153.833 207.91 162.279 207.91H192.252C200.226 207.91 203.801 209.284 203.801 213.446C203.801 223.381 190.052 216.902 190.052 243.956V333.638Z" fill="#D9CEC1"/>
<path d="M366.04 302.422V244.191C366.04 217.373 352.487 223.616 352.487 213.682C352.487 209.52 355.591 208.146 364.272 208.146H394.01C402.22 208.146 405.755 209.52 405.755 213.682C405.755 223.616 391.771 217.373 391.771 244.191V307.291C391.771 339.41 407.091 356.726 433.057 356.726C459.023 356.726 474.344 335.483 474.344 304.974L473.912 236.338C474.147 219.022 462.127 221.3 462.127 213.446C462.127 209.049 465.23 207.91 472.34 207.91H489.428C496.539 207.91 499.642 209.049 499.642 213.446C499.642 221.064 487.661 218.983 487.661 236.338L487.425 300.576C487.425 346.556 468.333 372 427.047 372C385.76 372 366.001 347.498 366.001 302.461L366.04 302.422Z" fill="#D9CEC1"/>
<path d="M541.164 368.309C535.154 368.309 534.054 371.764 530.047 371.764C526.04 371.764 523.408 368.977 521.837 359.278C520.305 350.051 518.498 339.645 517.398 326.217C516.966 320.68 517.83 316.989 521.601 316.989C525.137 316.989 527.376 319.541 530.715 325.785C537.157 340.117 549.571 358.611 575.341 358.846C594.196 358.846 602.642 347.067 603.074 334.345C603.742 316.557 584.219 308.469 565.559 299.006C542.028 286.755 520.266 277.528 520.266 249.767C520.266 226.443 540.457 206.104 573.966 206.104C584.179 206.104 592.822 208.892 598.596 208.892C603.939 208.892 605.039 206.104 609.045 206.104C613.249 206.104 615.056 208.421 617.256 218.119C618.827 225.737 620.595 234.296 621.93 245.173C622.598 250.474 621.498 254.165 617.491 254.165C614.152 254.165 611.481 251.377 607.946 245.605C600.6 234.061 588.422 218.551 569.998 218.551C553.578 218.551 544.935 228.014 544.935 240.972C544.935 257.149 559.588 263.863 581.547 275.407C606.178 288.129 629.041 296.885 629.708 323.704C630.376 353.742 602.642 371.764 572.905 372C556.249 372 547.371 368.309 541.164 368.309Z" fill="#D9CEC1"/>
<path d="M767.317 334.345C766.649 346.36 765.549 354.213 763.782 360.927C762.21 366.935 759.578 369.723 745.594 369.723H658.346C650.136 369.723 646.6 368.78 646.6 364.186C646.6 353.781 660.585 362.105 660.585 334.384V243.327C660.585 215.606 646.6 223.93 646.6 213.525C646.6 208.892 650.136 207.989 658.346 207.989L742.49 207.753C755.375 207.753 757.811 209.127 759.814 215.37C762.053 221.614 764.017 229.467 765.589 239.636C766.492 244.937 766.256 248.432 762.682 249.571C758.675 250.709 756.239 248.432 752.9 242.385C744.69 227.818 735.38 220.436 720.256 220.436H708.942C689.419 220.436 686.315 223.655 686.315 231.077V256.717C686.315 267.122 692.326 268.025 702.068 268.025H706.271C726.895 268.025 724.459 260.408 731.334 260.408C734.869 260.408 736.441 262.725 737.541 267.554L742.412 290.446C744.179 299.006 743.315 300.851 739.544 301.99C730.43 304.307 729.095 280.512 706.232 280.276H702.029C692.247 280.276 686.276 281.219 686.276 291.585V346.124C686.276 353.977 689.379 357.197 709.571 357.197L725.559 356.961C742.883 356.961 747.086 349.344 753.765 334.07C757.3 326.217 759.971 324.371 763.31 325.078C767.081 326.02 767.514 329.24 767.317 334.305V334.345Z" fill="#D9CEC1"/>
<path d="M359.283 283.771C358.026 281.847 356.416 280.472 354.884 278.98C354.255 280.158 353.548 281.847 353.234 283.889C352.841 286.441 353.234 288.522 353.587 289.857C359.519 300.262 357.476 313.73 348.481 320.641C346.084 322.486 343.413 323.664 340.663 324.214C339.367 326.727 337.599 328.965 335.36 330.693C334.339 331.478 333.199 332.106 332.099 332.617C339.249 333.991 346.752 332.46 353.037 327.63C365.844 317.814 368.633 298.142 359.283 283.731V283.771Z" fill="#D9CEC1"/>
<path d="M254.947 276.271C253.494 273.837 245.873 273.169 244.773 269.91C243.83 264.374 247.523 260.094 247.484 254.597C229.531 257.934 217.746 263.588 217.746 269.949C217.746 277.41 233.931 283.849 257.226 286.794C254.24 284.124 256.754 279.334 254.947 276.271Z" fill="#D9CEC1"/>
<path d="M286.138 251.298C276.278 251.298 266.968 251.887 258.483 252.908C258.169 257.11 258.169 261.939 261.508 264.923C262.568 265.866 273.136 271.049 274.825 271.559C276.632 272.109 278.557 271.088 280.364 271.481C287.042 273.012 289.752 276.389 291.324 283.143C289.359 285.067 281.778 276.193 275.728 278.077C271.8 279.334 270.425 285.498 266.143 287.737C272.468 288.247 279.185 288.561 286.138 288.561C297.098 288.561 307.43 287.854 316.622 286.598C315.404 283.692 315.993 275.878 311.004 273.248C310.022 272.737 300.987 270.813 299.612 270.774C298.12 270.735 296.863 271.873 295.409 271.873C290.027 271.991 287.356 269.949 284.842 265.12C285.981 263.274 293.445 268.575 297.648 265.984C301.302 263.745 299.848 255.735 307.037 255.303C313.597 254.95 311.358 260.879 313.794 263.353C315.365 264.923 321.257 263.981 322.75 266.258C324.636 270.499 322.279 274.661 323.811 279.098C324.675 281.493 327.15 282.789 328.171 284.635C344.199 281.218 354.569 275.918 354.569 269.949C354.569 259.662 323.929 251.338 286.138 251.338V251.298Z" fill="#D9CEC1"/>
<path d="M286.138 0C286.138 3.41609 285.863 11.3477 283.899 13.7429C283.231 14.5282 267.086 23.1666 265.711 23.2451C262.018 23.4414 258.483 21.2426 255.026 21.2818C250.391 21.3211 245.127 24.3838 239.981 22.9702C237.663 13.5465 237.938 8.12793 243.437 0H286.138ZM282.603 3.53388C278.007 3.25902 275.846 8.79544 271.054 8.75618C267.95 8.75618 265.357 5.57568 262.097 5.34009C259.583 5.18303 257.108 6.87144 254.869 6.9107C250.312 6.9107 238.134 3.45535 241.866 14.8423C242.691 17.4338 265.868 20.3395 268.932 19.5541C270.818 19.083 270.936 15.392 272.743 14.1355C277.103 11.0728 283.938 11.544 282.642 3.53388H282.603Z" fill="#D9CEC1"/>
<path d="M257.658 28.4281C259.74 31.3338 250.901 44.6055 248.819 47.8252C266.85 45.7834 258.64 61.2147 259.465 62C259.701 62.2356 263.433 61.9607 265.75 63.6884C271.446 67.8505 277.103 82.3395 277.378 89.4858C277.535 94.1976 275.257 100.205 275.885 103.229C276.592 106.763 280.521 109.786 280.914 116.147C282.053 135.348 271.918 133.345 264.65 142.651C262.804 145.007 264.69 147.481 263.197 149.797C253.651 164.483 248.976 165.111 234.756 171.158C232.203 172.218 230.042 176.576 226.349 176.89C222.185 177.283 219.946 172.296 216.057 172.1C210.911 171.825 201.876 175.477 195.512 173.71C194.059 201.824 235.895 191.968 242.73 216.234C248.584 237.045 224.935 214.428 221.243 214.546C211.107 220.985 205.529 230.88 191.387 226.561C182.824 223.97 186.398 208.852 184.552 205.868C183.845 204.73 177.52 204.926 176.185 200.882L177.717 168.37C169.428 167.938 160.629 173.553 153.558 166.642C150.729 163.894 152.968 161.695 151.908 159.614C149.276 154.47 143.855 147.049 140.673 142.455C128.927 125.374 141.105 126.238 141.694 119.642C141.93 116.932 135.566 112.26 137.177 104.092C137.373 103.032 145.033 84.9702 145.662 84.0671C147.626 81.1615 152.419 80.0621 153.715 77.9025C156.268 73.6225 154.383 64.1989 158.979 60.1153C162.475 57.0133 172.217 55.7175 176.695 52.8904C179.681 51.0057 180.702 46.019 186.202 44.7625C194.255 42.8778 200.855 45.7049 208.633 46.1761C213.504 30.8626 224.228 38.2837 233.342 36.9094C239.156 36.0063 252.748 21.4782 257.737 28.3889H257.658V28.4281ZM205.647 70.4028C206.668 69.2248 206.511 66.2407 207.847 64.7093C218.689 52.4193 252.865 55.7568 252.355 30.1165C246.58 31.9227 243.673 37.7733 237.859 39.5795C231.378 41.6213 220.378 39.0298 218.021 40.5611C215.154 42.4459 215.468 49.4744 210.204 51.0842L187.695 48.1001C183.177 49.5922 187.223 53.9506 184.866 55.7961C179.524 59.9582 171.589 60.1153 165.186 61.1362C162.082 62.9031 160.589 75.0754 158.586 79.316C157.211 82.1824 151.397 84.8524 150.454 87.3262C148.962 91.1742 149.472 96.5928 147.547 99.8518C145.976 102.522 139.102 102.718 140.201 108.922C156.19 118.267 139.494 120.78 140.712 131.696C141.498 138.764 146.487 139.942 148.254 143.672C149.551 146.381 148.883 149.68 150.179 152.428C151.633 155.609 159.725 161.538 161.689 165.896L179.445 164.915L177.638 149.876L181.174 148.973C182.274 154.038 185.573 161.341 190.209 163.933C191.269 164.522 204.822 169.862 205.647 169.98C210.361 170.726 214.407 167.388 219.043 168.763C221.714 169.548 223.442 174.22 226.31 173.71C228.51 168.92 238.095 167.663 239.509 166.25C240.295 165.464 239.431 162.676 241.08 161.341C244.537 158.475 252.04 155.883 255.065 152.624C258.09 149.365 258.365 144.889 261.193 141.041C264.297 136.84 271.486 132.56 275.453 128.633C266.968 125.767 275.218 116.029 275.453 110.022L270.15 114.459C261.901 118.11 272.743 97.2603 273.018 95.886C274.314 89.1324 268.068 71.3059 263.236 66.8689C260.722 64.5915 256.322 66.594 254.24 63.0602L257.737 55.0893C245.205 48.0608 246.541 54.4218 238.174 57.7201C233.224 59.6833 218.65 61.5681 215.468 64.3559C214.093 65.5339 214.407 68.4395 213.386 69.7353C210.479 73.4262 205.804 72.7587 207.926 81.6719H200.855L206.158 74.5649C201.169 74.2901 195.394 79.6301 195.551 84.342C195.63 87.9151 201.483 88.9753 196.416 92.2343C188.716 86.7372 192.134 79.7479 198.144 74.4864C200.462 72.4446 204.429 71.9341 205.686 70.4813V70.4028H205.647ZM195.473 168.448L183.924 161.381C176.499 167.742 181.684 175.241 181.409 181.759C181.174 187.414 177.835 195.62 179.367 201.039C179.917 202.963 185.731 202.02 187.616 205.711C189.227 208.892 184.906 223.538 194.648 225.265C207.729 227.582 213.229 213.054 221.282 212.622C231.378 212.033 231.456 223.498 241.709 221.653C238.291 199.193 210.322 202.609 198.065 189.848C194.412 186.039 190.877 179.914 193.744 174.849L190.17 173.788L195.473 168.527V168.448Z" fill="#D9CEC1"/>
<path d="M271.839 143.633C270.7 149.051 275.807 153.959 275.492 158.554C275.1 164.326 265.711 181.838 266.457 185.018C266.89 186.746 270.268 186.707 271.093 187.924C272.35 189.809 270.307 192.675 270.936 195.07C273.489 205.004 293.72 206.968 291.599 220.671C290.499 227.778 276.946 224.362 272.389 222.085C268.814 220.318 268.068 215.645 265.475 214.821C259.19 212.779 253.73 218.119 251.058 207.91C249.291 201.156 250.705 192.125 249.919 186.982C249.526 184.39 243.437 182.348 245.244 175.006C255.222 168.016 265.829 156.041 266.732 143.633H271.878H271.839ZM287.906 221.653C290.538 209.245 273.803 208.146 269.246 202.138C268.304 200.882 263.59 188.277 263.315 186.589C263.197 185.764 265.279 171.511 265.632 170.215C267.204 164.797 274.235 158.828 271.014 152.507C266.497 156.158 263.59 163.265 260.486 166.839C257.383 170.412 250.823 172.022 249.134 176.851C246.541 184.312 253.298 182.741 253.887 185.411C254.24 186.942 252.276 189.809 252.512 192.204C252.865 195.541 254.672 210.58 257.069 211.091C261.351 211.483 266.615 210.109 270.7 211.326C274.432 212.465 274.471 216.863 276.75 218.276C279.656 220.043 284.763 217.844 287.906 221.653Z" fill="#D9CEC1"/>
<path d="M293.288 246.469C292.109 231.077 302.991 221.771 307.351 208.695C299.769 203.473 302.166 190.987 311.712 190.044C313.636 190.398 319.45 196.955 320.393 199.075C321.847 202.295 325.814 217.687 325.303 220.632C324.832 223.341 322.043 225.344 321.768 227.935C321.493 230.998 323.968 233.59 322.829 237.634C320.393 246.39 315.168 240.932 310.297 241.207C305.112 241.482 299.691 248.314 293.327 246.469H293.288ZM312.772 193.264C310.18 191.458 306.369 197.465 305.819 199.743C305.308 201.863 311.24 202.256 309.158 211.797C306.88 222.085 298.434 228.367 296.588 239.951C296.43 240.932 293.759 244.584 297.687 244.662C298.905 244.662 306.998 238.459 310.376 238.144C313.244 237.87 316.701 240.068 319.922 239.401C321.1 235.239 317.722 230.056 318.508 226.522C318.979 224.323 322.043 222.281 322.789 219.925C324.911 213.604 315.797 199.389 312.772 193.303V193.264Z" fill="#D9CEC1"/>
<path d="M228.746 148.423C224.739 151.604 217.432 150.269 211.932 152.075C205.608 154.156 199.362 165.661 194.53 157.807C193.548 156.198 192.566 134.719 192.291 129.851C192.134 126.592 194.255 123.372 193.391 120.073C192.33 115.99 180.781 109.786 181.292 100.087C181.488 96.3964 187.145 92.2736 190.68 92.5877C196.966 93.1374 195.237 100.127 200.737 99.3021C203.722 79.5909 208.75 84.342 219.789 95.5326C226.035 97.1425 238.291 79.4731 247.052 94.7866C251.648 102.797 245.284 107.116 245.087 114.419C244.97 119.092 247.994 123.568 246.659 128.162C246.266 129.458 230.003 147.363 228.667 148.423H228.746ZM210.322 95.1007C209.3 93.4515 210.479 90.7815 208.79 90.4281C205.215 93.4908 206.865 98.0849 204.429 102.051C199.912 109.511 193.077 106.684 192.016 98.5953L186.556 97.5351C185.338 106.566 195.434 111.985 196.848 118.267C199.401 129.536 198.144 142.887 197.241 154.234C209.497 154.548 211.579 137.861 224.699 147.127L227.449 141.826L218.571 140.06C228.667 143.044 240.609 131.186 242.73 122.429C243.241 120.309 240.177 118.581 240.098 116.225C240.02 113.87 241.905 111.278 241.788 108.922C241.67 106.566 240.727 93.4515 239.981 92.9804C233.42 88.7397 230.788 96.7891 227.449 98.3205C222.067 100.755 213.582 100.284 210.322 95.0222V95.1007Z" fill="#D9CEC1"/>
<path d="M333.317 333.088C320.393 347.616 302.834 356.569 283.428 356.569C264.022 356.569 246.462 347.616 233.538 333.088C219.278 336.504 210.283 341.334 210.283 346.713C210.283 357.04 243.005 365.403 283.388 365.403C323.771 365.403 356.494 357.04 356.494 346.713C356.494 341.334 347.538 336.465 333.239 333.088H333.317Z" fill="#D9CEC1"/>
</g>
<defs>
<clipPath id="clip0_319_120">
<rect width="811" height="372" fill="white"/>
</clipPath>
</defs>
</svg>
