<svg width="133" height="53" viewBox="0 0 133 53" fill="none" xmlns="http://www.w3.org/2000/svg">
<path d="M71.774 5.18636C71.3425 5.03029 71.0222 4.70118 70.6193 4.49083C67.3862 2.79952 58.9089 1.13195 55.6083 2.62648C55.4549 2.69604 55.2391 2.66041 55.2948 2.88095C56.5894 3.15576 58.2953 3.88522 59.4078 4.61297C59.7601 4.84368 61.7948 6.46884 61.4509 6.89294C58.5043 5.03198 55.5982 3.71557 52.0178 4.15494C50.9861 4.28217 48.4526 4.881 47.6097 5.39671C47.3906 5.53073 47.0568 5.7292 46.9708 5.98027C49.2988 5.42555 51.0654 5.02011 53.3832 5.89545C55.7145 6.77419 56.2236 8.12622 56.5607 10.5131C57.4238 9.52236 58.9257 9.39343 59.8916 8.82005C61.2267 8.02783 62.1319 6.65883 63.9036 5.95143C66.8384 4.77922 72.8158 5.1677 75.9242 5.86322C76.5445 6.00233 78.151 6.78097 78.5623 6.72499C78.9197 6.67749 81.3656 5.22368 82.2556 4.96413C86.0147 3.86825 92.6597 3.85977 95.9856 6.14652C96.4475 6.46375 97.6224 7.72078 97.9325 7.77167C100.974 7.26614 103.853 6.62151 106.966 6.9557C108.119 7.07954 109.144 7.27802 110.11 7.95658C111.777 9.13049 113.421 10.6335 114.447 12.4164C115.199 13.7243 115.46 15.0187 116.443 16.1926C117.5 17.453 119.132 18.5964 120.303 19.8127C120.698 20.2216 121.246 21.2326 121.63 21.5125C122.837 22.3964 125.645 23.1021 127.193 24.22C139.454 33.0735 122.218 40.804 114.749 43.274C113.581 43.6608 110.767 44.0967 109.923 44.7125C109.722 44.8584 109.523 45.4471 109.279 45.727C105.97 49.515 103.293 49.9035 98.5512 50.9892C88.0089 53.4032 75.8736 53.0826 65.0701 52.8247C54.3794 52.5703 43.4713 51.6067 32.9375 49.8594C30.3584 49.4319 27.55 49.4116 25.217 48.0561C24.1517 47.437 22.707 45.6863 21.8389 45.2723C20.6741 44.7159 17.8556 44.4733 16.4043 44.0424C13.011 43.0365 5.83836 39.7743 3.28455 37.4044C1.18587 35.4587 -0.986986 30.9394 0.479562 28.1726C1.45052 26.3405 5.42031 23.8824 7.32683 23.0698C8.22193 22.6881 9.44068 22.5304 10.2094 22.1385C10.8381 21.8162 11.3742 20.9985 11.9288 20.5948C12.6772 20.0485 14.6714 19.3937 15.0962 18.9849C15.3996 18.6931 15.5226 17.7991 15.7283 17.3716C16.4666 15.8415 18.5956 13.8736 19.9105 12.7744C21.7091 11.268 23.4504 9.08299 25.8407 8.2314C26.7864 7.89551 26.9769 7.98033 27.9209 7.49007C31.6564 5.55278 32.9645 5.50019 37.123 6.41116C39.3515 6.89972 41.4637 7.6173 43.2792 9.03719C43.9535 8.42988 44.4895 7.65292 45.1486 7.03374C45.5161 6.68767 46.1128 6.49259 46.4972 6.08884C47.5339 4.99975 47.3484 4.38396 49.1133 3.65111C50.7468 2.97255 55.583 1.46954 57.2754 1.18963C60.8676 0.595892 67.6424 1.38811 70.589 3.68334C70.8166 3.86147 71.9881 4.91832 71.7791 5.19145L71.774 5.18636ZM45.1048 12.4232C45.2127 12.2977 44.5468 11.5411 44.4136 11.3918C42.6757 9.44941 39.5353 8.25006 37.0404 7.68176C34.5456 7.11347 31.7693 6.62151 29.3385 7.55793C31.1237 8.26193 33.4246 8.20595 34.7766 9.71575C34.4917 9.74628 34.2102 9.74289 33.9253 9.70896C31.4996 9.42227 29.9252 8.80139 27.373 9.18817C25.2103 9.51557 23.2987 10.7048 21.5523 11.9448C22.4592 12.1942 23.3476 11.5563 24.209 11.4325C27.078 11.0152 31.712 12.6573 33.9843 14.4029C34.8693 15.0832 35.5908 16.2639 36.2313 16.8016C36.7691 17.2529 38.3367 17.8873 39.0565 18.403C40.4101 19.3717 40.7591 20.1826 41.7806 21.2191C42.3065 21.7517 43.1915 22.1894 43.7175 22.851C44.1355 23.3769 44.272 24.0877 44.8351 24.5067C46.4601 23.1343 48.257 21.974 50.3169 21.37C48.5941 16.2011 44.8907 13.1713 39.928 11.3409C39.1526 11.0542 37.7923 10.9032 37.1938 10.5741C36.5533 10.2213 36.9359 9.76834 37.6102 9.76834C40.218 9.76664 42.883 11.1882 45.1048 12.4249V12.4232ZM56.0803 11.1662C55.6218 9.20004 55.0284 7.68685 53.0107 6.97606C51.1058 6.30428 48.9414 6.38402 46.9944 6.86749C46.4988 6.99133 45.9072 7.35436 45.5768 7.74962C47.957 7.72587 50.2343 7.74623 52.4392 8.78442C53.9985 9.51897 54.0372 10.2365 54.0153 11.916L56.0803 11.1662ZM62.8736 7.98033C63.8007 7.88024 64.8442 7.90399 65.7915 7.86837C69.404 7.72926 72.7619 12.5335 72.9776 15.8584C73.0012 16.2265 72.713 16.9187 72.9102 17.2071C72.9439 17.2546 73.7716 17.5192 73.9873 17.6498C74.7661 18.1231 75.963 19.0782 76.617 19.7177C76.8699 19.9654 77.4026 21.0545 77.7987 20.9561C77.9588 20.9154 79.2332 19.0714 79.5198 18.7745C80.2362 18.0298 81.8275 16.861 82.758 16.4437C83.4441 16.1366 86.1681 15.7295 86.271 15.302C86.3266 15.0696 85.1803 12.8778 84.9494 12.5335C82.8979 9.47995 77.4953 7.40525 74.0093 6.92517C70.2991 6.41285 65.2184 5.74108 62.1538 8.17033C62.4336 8.27381 62.7219 7.99729 62.877 7.98033H62.8736ZM86.4429 15.2375C86.9587 15.2426 87.0599 14.6133 87.3751 14.2977C88.3561 13.3155 89.5783 12.6505 90.615 11.8108C91.269 11.2815 91.7377 10.5181 92.5215 9.96851C93.7048 9.14067 95.2557 8.54523 96.5503 7.90569C96.5419 7.73096 93.8279 6.46375 93.4537 6.34669C90.5543 5.43233 86.5626 5.84965 83.5924 6.36536C82.436 6.56723 81.4381 7.09311 80.2986 7.30855C82.1511 8.51979 83.7745 9.07621 85.1163 10.9897C85.8243 12.0008 86.7716 14.0365 86.4446 15.2358L86.4429 15.2375ZM49.7033 18.1265C49.3038 15.6633 52.7544 13.441 52.6347 11.424C52.5656 10.2501 51.8644 9.13049 50.7367 8.76746C49.8854 8.49264 47.2355 8.29247 46.4044 8.52487C46.0555 8.62157 44.3412 9.75986 44.3799 10.0567C44.4389 10.5012 46.0808 12.2637 46.337 12.8643C46.9691 11.6106 48.0193 11.2442 49.1504 12.1891L47.4917 12.8422C47.3383 12.9559 46.9489 13.419 47.2523 13.5717C48.4644 14.1841 51.2491 12.9135 50.7451 11.3426C50.6069 10.9134 48.7863 10.6454 48.3548 10.6606C47.8052 10.6793 46.1516 11.268 45.9628 11.234C45.7369 11.195 45.5953 10.7726 45.6914 10.6148C45.8026 10.4316 47.3518 10.0703 47.6839 10.033C49.3881 9.83959 50.7316 10.0449 51.3654 11.8227C51.8138 13.0848 51.2205 13.6463 50.1517 14.2214C49.0189 14.8304 48.5048 14.866 47.2911 14.3826L49.7016 18.1299L49.7033 18.1265ZM72.5461 16.917C71.8246 10.6488 67.017 7.79881 61.0632 9.43924C60.0787 9.71066 58.6071 10.1992 57.8705 10.8693C61.1053 10.6131 64.1446 12.6285 64.0755 16.101C66.4169 15.5497 68.7398 15.8923 71.0627 16.3215C70.5148 13.2188 67.5278 10.2213 64.3317 10.0465C64.352 9.24585 65.2235 9.3154 65.8303 9.35611C68.2105 9.51388 70.5924 12.279 71.0846 14.5183C71.3341 15.6515 70.8857 16.8644 72.5478 16.9187L72.5461 16.917ZM113.857 36.0711C115.238 36.1287 116.669 35.4739 117.913 34.8971C120.735 33.5892 123.053 32.0845 123.695 28.802C124.142 26.5186 121.375 22.4744 119.852 20.8102C118.41 19.236 115.698 17.47 114.724 15.6803C114.414 15.1103 114.255 14.4097 113.936 13.8176C113.051 12.1738 110.981 9.28317 109.237 8.5605C105.12 6.85901 96.1255 9.08299 92.4153 11.4461C91.5826 11.9771 91.0583 12.8049 90.266 13.3766C91.1578 13.4309 92.0259 13.1238 92.9379 13.19C94.2223 13.2816 96.3649 14.7948 97.4471 15.5938C97.646 15.7414 97.8971 15.7617 97.8348 16.1044C97.533 16.4013 94.964 14.9576 94.4128 14.8117C92.3108 14.2553 90.2677 14.7897 88.2297 15.3342L92.2737 16.2876C93.398 16.822 94.2645 17.0154 95.05 18.0247C95.5237 18.632 97.2043 21.1563 97.2465 21.7687C97.3021 22.5711 96.2553 24.7815 95.6737 25.3396C94.4145 26.5474 91.7022 27.7349 90.0722 28.4576C87.4155 29.6332 84.2161 29.2278 82.3231 26.9308L81.1718 26.1437L82.1916 30.556C83.8436 31.0429 85.7113 32.1167 87.4594 32.0133C89.0153 31.9217 90.8999 31.0531 92.476 30.8546C94.0521 30.6561 95.6822 30.8733 97.1723 30.6697C99.4176 30.3627 102.919 28.2981 103.081 25.7909C103.177 24.3099 102.334 23.8112 101.855 22.6966C101.145 21.046 101.27 18.6677 99.6739 17.4225C99.9065 17.168 100.358 17.6176 100.584 17.7923C102.443 19.2224 102.184 21.4175 103.017 23.3022C103.273 23.8807 103.753 24.3387 103.972 24.98C104.965 27.8774 101.624 30.6052 99.1041 31.2092C97.3105 31.6401 95.8356 31.2346 94.1229 31.4433C92.4423 31.6485 90.4616 32.5222 88.8029 32.6291C86.4345 32.78 84.3442 31.6061 82.1714 30.9225C82.4259 33.2109 82.4984 36.0134 81.3437 38.0966L79.6074 40.2459C80.0255 40.6921 80.543 41.0924 81.0993 41.3435C83.1996 42.2884 85.5073 41.4656 87.7004 41.3503C89.172 41.2739 90.7009 41.4419 92.2316 41.3231C97.1605 40.938 101.796 39.1721 106.597 38.1933C108.831 37.7369 110.685 37.7861 112.88 36.8039C113.122 36.6953 113.321 36.8819 113.222 36.4239C112.637 36.373 112.102 36.6343 111.528 36.6682C111.123 36.6919 110.739 36.5155 110.405 36.5494C108.396 36.7479 106.263 37.53 104.225 36.943C103.138 36.6292 102.194 35.8522 101.557 34.9175C102.207 35.1346 102.649 35.7216 103.219 35.9981C104.616 36.6767 106.932 35.9676 108.412 35.7962C109.363 35.686 110.332 35.7911 111.285 35.6419C114.004 35.2127 115.543 33.557 117.264 31.618C117.406 31.4585 118.201 30.2151 118.024 31.2244C117.78 32.6257 114.904 35.0464 113.857 36.0727V36.0711ZM15.644 18.7881C18.358 17.5243 21.4832 14.9475 24.4905 14.5267C28.113 14.0212 31.835 14.8542 35.1794 16.157C33.4314 14.2909 30.3145 13.0797 27.8113 12.7828C25.0316 12.4537 20.9708 13.4241 18.7642 15.168C18.2754 15.5548 15.2192 18.2843 15.644 18.7864V18.7881ZM63.4265 16.1248C62.4741 13.5157 59.8916 11.0101 56.9383 11.9686C57.2974 12.4029 58.2346 12.5878 58.6375 12.8761C59.6236 13.5835 60.1597 15.7448 60.3721 16.8983L63.4265 16.1248ZM58.3037 17.9569C59.8815 17.2444 60.4075 17.3699 59.5916 15.6226C59.0471 14.4572 57.3816 13.0509 56.0853 12.9779C52.7207 12.7896 49.7286 17.9416 51.5256 20.8408C52.5505 20.2708 53.9024 20.3963 54.7958 19.6448C53.9968 19.5701 52.0684 19.3971 52.0313 18.3131C51.9925 17.1477 52.891 16.6574 53.9428 16.6523C54.135 16.6523 55.6016 16.8593 55.6656 16.9187C55.8949 17.1324 55.4566 17.3767 55.2492 17.3801C54.7941 17.3869 54.4452 16.8457 53.9749 17.3088C53.8198 17.4615 53.4843 18.5235 53.5214 18.7219C53.7372 19.8501 57.7896 19.1291 57.0833 16.8203C56.6045 15.2562 55.0706 15.7617 53.9513 15.6345C53.808 15.6175 53.4607 15.5819 53.4961 15.3682C55.3453 14.9339 59.0134 15.2206 58.302 17.9569H58.3037ZM31.3243 38.4426C27.4438 37.647 22.9161 36.3272 22.9464 31.4959C22.9953 23.7721 28.6491 17.4395 36.614 18.5065C37.2562 18.593 38.2963 19.1053 38.9874 19.3259C39.2184 19.3988 39.456 19.6974 39.1964 19.2682C35.2132 16.7473 30.1342 14.8185 25.3367 15.475C22.6244 15.8465 12.9655 20.761 11.418 22.9545C10.8314 23.7857 9.00746 26.8477 8.76303 27.7163C7.91007 30.7545 10.029 32.9124 12.5457 34.1304C15.671 35.6436 19.1924 36.0371 22.5031 36.982C20.6336 34.7869 20.0538 30.875 21.3214 28.2523C21.431 28.0267 21.3989 27.9046 21.7546 28.0284C22.1862 28.1777 21.7597 29.6519 21.7546 30.0709C21.7361 31.4874 22.3901 36.7717 23.5448 37.5486C25.5677 38.3052 27.4539 38.6581 29.62 38.6767L31.3226 38.4426H31.3243ZM52.0835 42.2137C51.6924 42.3443 51.1513 42.4953 50.9743 42.9076C52.2605 43.0619 53.6698 43.2451 54.9644 43.2587C58.7049 43.3011 61.7189 42.76 65.0835 41.0347C66.7338 40.1882 67.7587 39.1704 69.2152 38.1203C69.9602 38.0949 67.6778 40.7735 67.4604 40.8888L65.0785 42.363C66.781 42.7006 68.4836 43.045 70.2215 43.145C71.7454 43.2333 74.0936 43.2842 75.5803 43.1094C77.2374 42.9143 77.5138 42.4122 78.5033 41.1942C78.3128 43.2706 76.8159 43.9 74.9617 44.1069C71.8246 44.4581 67.7318 44.2189 64.7818 43.1128C64.4919 43.0042 64.1547 42.6344 64.0351 42.626C63.8429 42.6124 61.0834 43.5827 60.3367 43.6913C58.6392 43.9356 55.7432 44.0102 54.0204 43.9356C52.7544 43.8813 51.4598 43.3622 50.2394 43.2875C46.9759 43.0857 45.9038 43.5132 42.7701 41.8897C42.1751 41.581 39.7544 39.7777 39.5639 39.7556C38.8896 39.6759 37.4922 40.2883 36.673 40.3256C35.5267 40.3799 34.5541 39.9049 33.4938 39.7387C30.4443 39.2603 27.8669 40.044 24.5731 39.2382C23.4791 38.9702 22.7475 38.4375 21.8271 38.1441C16.3436 36.3951 11.8731 37.2093 8.45961 31.2651C6.5649 27.9673 7.46674 26.2675 9.65139 23.5092C9.67667 23.2683 9.65645 23.2157 9.41202 23.2853C7.93704 23.6975 4.15942 26.1301 2.97438 27.1989C-2.54625 32.1693 5.19275 37.2467 9.34122 39.4808C16.5998 43.391 21.9738 44.2783 29.996 45.4047C35.198 46.1358 40.3157 46.8873 45.5414 47.3691C60.6873 48.7652 75.378 48.8076 90.4886 46.9382C97.0374 46.1273 103.836 44.721 110.275 43.1959C115.875 41.8694 124.187 38.1899 128.477 34.3594C128.867 34.0116 129.826 33.2109 130.035 32.8207C130.151 32.6019 130.844 30.7528 130.849 30.5764C130.91 28.5645 128.577 26.3117 127.065 25.2005C125.767 24.2454 124.223 23.7891 122.854 22.9816C122.63 23.0885 122.85 23.287 122.923 23.4159C124.615 26.427 126.031 31.7164 122.488 33.9675C120.3 35.3569 117.709 35.9591 115.304 36.7106C113.625 37.2348 112.084 38.6666 109.978 38.8362C109.112 38.9057 108.379 38.6038 107.425 38.8073C105.097 39.3061 102.599 40.4953 100.287 41.1229C95.93 42.307 91.8472 42.3104 87.4054 42.4885C84.8651 42.5903 83.2856 42.9347 80.9526 41.6726C80.5885 41.4758 79.336 40.5122 79.2113 40.5139C78.9348 40.519 78.446 40.9346 78.0971 41.05C76.4535 41.5962 72.6186 41.7506 70.8284 41.6302C70.3935 41.6013 68.3993 41.2061 68.106 41.0212C67.8632 40.8702 67.9526 40.86 68.0925 40.6921C68.4617 40.2493 70.2536 40.6768 70.9278 40.6734C72.7332 40.6615 75.3292 40.5546 77.0856 40.2646C83.2401 39.245 81.4431 28.707 79.4574 24.7798C75.1876 16.3368 66.9783 15.3868 58.8145 18.6711L56.736 19.4853C59.3151 18.8424 62.5196 18.7661 64.9217 20.0197C67.2227 21.2207 70.9346 26.4236 71.7521 28.9054C72.2764 30.495 72.3927 33.4891 71.855 35.0736C71.6898 35.5604 70.0631 38.6241 69.4579 38.1084C69.7495 37.3739 70.2536 36.8243 70.5435 36.0541C71.3543 33.9115 71.2077 31.0005 70.3665 28.88C69.6096 26.9732 67.2075 23.2819 65.8337 21.7432C65.2353 21.0732 64.5037 20.7508 63.6305 20.5693C61.4576 20.1198 59.1061 20.2284 56.9417 20.6219L59.096 21.7602C65.4477 27.0886 59.7028 36.8921 54.516 40.7803C53.8956 41.2451 53.2028 41.5878 52.5623 42.0271C52.306 42.0882 52.2285 42.1594 52.0818 42.2086L52.0835 42.2137ZM87.6448 21.236C86.1664 21.0172 85.9962 20.4048 84.447 21.1665C83.5452 21.6109 83.1862 22.1996 83.5351 23.2412C83.6952 23.7195 85.7703 24.7408 86.2305 24.7272C88.4674 24.6627 90.3352 22.5558 90.5189 20.3776C90.8543 16.4386 86.2372 18.0162 84.2043 19.0527C81.8797 20.2385 80.1856 22.7272 81.4684 25.3142C82.6214 25.9588 84.5532 28.2744 85.6776 28.5543C87.6145 29.0361 88.872 27.9504 90.4734 27.2582C91.9989 26.5983 92.8923 26.561 94.2797 25.2989C95.0315 24.6152 96.3059 22.203 96.1558 21.2089C96.0867 20.7525 94.0656 17.6583 93.6678 17.319C93.3256 17.0289 92.6934 16.7779 92.2602 16.6388C87.279 15.0357 81.2746 17.1731 78.3921 21.5091L79.926 23.3277C79.8519 21.9723 80.5649 20.7627 81.4954 19.8331C83.4188 17.9094 88.727 16.1417 90.7835 18.5811C91.7461 19.7228 91.4309 22.6593 90.4127 23.7399C89.1299 25.1021 86.6873 25.5924 84.9578 24.9138C84.5971 24.7713 82.6636 23.7637 82.4529 23.5601C81.8376 22.9663 81.551 21.7721 82.195 21.1156C83.3193 19.9705 86.662 19.6974 87.6414 21.2343L87.6448 21.236ZM38.7447 32.9276C37.3186 32.9887 36.0155 32.4475 35.6548 30.9293C35.4593 30.1048 35.7492 29.623 35.8116 28.8546C35.8925 27.8639 35.7458 26.7663 36.292 25.8401C37.3135 24.108 40.0899 23.3073 41.9711 23.7297C42.6993 23.8926 43.9248 25.1751 44.0731 25.1937C44.2485 25.2158 44.5788 24.8782 44.5772 24.7798C44.5721 24.5118 43.3736 23.2887 43.0786 23.0376C35.9262 16.9407 26.1104 19.8636 24.3927 29.2244C24.268 29.9063 23.9258 32.3525 23.9797 32.9157C24.0269 33.389 25.1412 34.7937 25.5205 35.1516C27.3747 36.9057 32.8684 38.6649 35.3986 39.0262C36.6241 39.2009 38.0367 38.9074 39.3043 39.111C38.4379 37.0618 38.3974 35.0973 38.7447 32.9276ZM42.6723 33.7555C42.5594 36.5766 43.0887 39.4214 46.1314 40.273C47.2456 40.5852 47.8069 40.653 48.9229 40.2883C53.717 38.7225 58.0677 34.166 60.0231 29.5518C60.6232 28.137 61.0059 27.1853 60.6654 25.6687C60.308 24.0741 59.4432 22.8663 57.9986 22.1114C51.0468 18.476 38.5171 29.0174 39.7359 36.5206C40.1489 39.0618 41.0305 39.9456 43.1308 41.1552C46.4752 43.0823 48.6312 43.6183 52.0987 41.6743C54.607 40.268 57.4575 36.9922 58.9004 34.4832C59.4702 33.4925 59.9169 32.21 60.2642 31.1142L58.8853 33.367C56.1612 37.798 47.5575 43.8932 43.0348 38.8786C39.4409 34.8938 42.8342 28.7239 46.3825 25.9605C47.0888 25.4109 48.0581 24.5203 48.9852 24.7679C48.252 25.4227 47.308 25.9554 46.8731 26.8884C48.3025 26.1267 51.1176 24.8765 52.5842 25.7841C54.5345 26.9902 53.7574 28.7222 52.7409 30.3135C51.8003 31.7859 47.9856 35.4213 46.3336 35.8251C44.6665 36.2322 43.8591 35.1397 43.0449 33.9472C42.9353 33.7877 43.0482 33.6571 42.674 33.7521L42.6723 33.7555ZM40.545 29.0988C39.5673 29.3906 39.0296 27.9012 39.4864 27.2464C39.81 26.7833 41.2901 26.7137 41.8295 26.768C42.0756 26.7934 42.3065 27.0869 42.4768 27.0513C42.6942 27.0055 43.3112 25.8112 43.6568 25.6297C42.229 24.3642 38.6317 24.8171 37.5192 26.3575C35.7947 28.7443 36.7707 30.6358 39.542 31.1108C40.2584 29.8894 40.8703 28.6103 41.9492 27.6535C42.079 27.3007 41.5733 27.399 41.3861 27.4432C40.9748 27.5382 39.7325 27.9979 39.8791 28.5407C39.9735 28.8902 40.6765 28.5611 40.5433 29.0971L40.545 29.0988ZM51.4379 26.1149C49.3173 26.3727 46.273 27.6111 44.8519 29.2583C43.5725 30.741 42.3841 33.4806 44.2586 35.0023C45.034 35.6317 46.3235 34.7597 47.0619 34.3085C48.5638 33.389 50.9406 30.819 51.7835 29.2702C52.0077 28.8596 52.7494 27.0903 52.7494 26.7239C52.7494 25.8655 52.006 26.047 51.4362 26.1166L51.4379 26.1149ZM107.871 45.1248C104.227 45.8661 100.365 47.1927 96.6953 47.6863C81.278 49.7576 65.864 50.2038 50.3388 49.1215C41.7823 48.5243 33.4533 46.5531 24.9878 45.9204C24.8175 45.9068 24.3084 45.7948 24.3068 45.9797C26.4425 47.5659 29.1464 48.1019 31.7086 48.6414C35.6582 49.4726 40.0275 50.1546 44.0445 50.5261C60.8879 52.08 78.0954 53.0588 94.8427 50.3632C98.1972 49.8238 104.756 48.979 107.054 46.4055C107.187 46.2563 107.984 45.2452 107.871 45.1248Z" fill="#D9CEC1"/>
<path d="M46.2884 43.0149C47.1383 42.8114 48.1823 42.7927 49.0724 42.562C52.5691 41.6529 57.1902 39.5309 59.3351 36.4674C60.3088 35.0765 61.4566 29.6774 61.1721 27.993C61.0985 27.5588 60.4159 26.3612 60.4778 26.2917C60.7238 26.0169 60.8325 26.4834 60.9061 26.58C62.7415 29.0108 62.2145 31.9351 61.4917 34.7135C60.6585 37.9194 55.1976 41.2763 52.2211 42.2109C50.5062 42.7503 47.9916 43.4967 46.2131 43.4899C46.0207 43.4899 45.8484 43.3932 45.8132 43.193C46.009 43.2151 46.1395 43.115 46.2901 43.0115L46.2884 43.0149Z" fill="#D9CEC1"/>
<path d="M59.9543 4.95291C59.971 4.96817 60.1735 5.32947 60.0932 5.39223C58.7129 5.08182 57.346 4.55938 55.9506 4.3236C55.4972 4.24727 55.1308 4.33039 54.7309 4.29816C54.49 4.2795 54.2323 4.1896 54.4816 3.98096C55.6511 3.77741 59.1027 4.17942 59.956 4.95121L59.9543 4.95291Z" fill="#D9CEC1"/>
<path d="M72.9942 29.233C72.6446 29.3178 72.6228 29.0752 72.489 28.853C72.1008 28.2051 71.9168 27.284 71.5855 26.614C70.7941 25.0144 69.3101 23.2503 68.0519 21.99C67.5902 21.5269 66.5462 20.9757 66.3036 20.6737C65.7966 20.0444 67.1702 20.6347 67.3425 20.728C70.1684 22.2716 72.2848 26.156 72.9942 29.233Z" fill="#D9CEC1"/>
<path d="M73.456 32.8918C73.4209 32.6747 73.1599 32.2659 73.0996 32.008C73.4577 31.6857 74.0048 33.1309 74.0784 33.3973C74.5452 35.0901 74.2624 37.073 73.2535 38.5233C73.1398 38.6861 72.7951 39.2272 72.5542 38.9677C72.7232 38.2604 73.2485 37.6243 73.374 36.9051C73.4209 36.6388 73.553 35.5311 73.5463 35.3361C73.5179 34.5829 73.5664 33.5974 73.4543 32.8901L73.456 32.8918Z" fill="#D9CEC1"/>
<path d="M54.7793 22.5956C55.5891 22.8314 56.168 23.6473 56.5678 24.3732C57.5817 26.2103 57.7825 28.4798 57.56 30.551C57.3508 32.4864 56.4758 33.9943 55.1005 35.3191C55.4435 33.8077 56.3754 32.4592 56.5879 30.897C56.8004 29.3348 56.6264 26.7259 56.1328 25.1891C55.8266 24.2325 55.2043 23.4793 54.7793 22.5956Z" fill="#D9CEC1"/>
<path d="M109.984 23.2215C109.825 23.3979 109.106 22.6668 108.992 22.526C108.403 21.8051 107.938 20.6856 107.348 19.9104C105.569 17.5713 99.7351 13.2985 96.9277 12.6318C94.8999 12.1501 92.7115 12.0789 90.667 11.8397C89.6682 11.7226 89.8873 11.3325 90.7523 11.2206C96.3086 10.503 102.118 12.815 106.029 16.7656C107.898 18.6518 108.766 20.9129 109.983 23.2215H109.984Z" fill="#D9CEC1"/>
<path d="M96.9529 36.4691C96.8843 36.1859 97.0817 36.0604 97.249 35.8839C98.0454 35.0443 98.7347 34.6949 99.2869 33.5499C101.017 29.9725 100.259 25.7133 97.7861 22.7296C97.1771 21.9951 96.3322 21.4795 95.8052 20.65C95.3718 19.9681 95.1761 19.0759 94.6558 18.4279C96.1364 18.6349 96.6183 20.1598 97.5034 21.169C98.1743 21.9341 99.0543 22.5176 99.7118 23.3368C102.917 27.3281 102.029 34.5219 96.9496 36.4675L96.9529 36.4691Z" fill="#D9CEC1"/>
<path d="M82.116 40.3128L90.1568 37.7175C90.7139 37.6955 92.6129 35.7058 92.9174 36.5641C93.2219 37.4224 90.99 38.6742 90.3409 38.9897C89.1479 39.5715 86.123 40.2331 84.7745 40.3705C83.861 40.4638 83.0295 40.1822 82.1176 40.3111L82.116 40.3128Z" fill="#D9CEC1"/>
<path d="M108.352 31.1276C108.265 30.0997 108.609 28.7631 108.553 27.7793C108.489 26.7157 107.428 23.4369 106.923 22.4157L105.186 19.8188C105.871 19.164 107.473 21.7491 107.723 22.2224C109.018 24.6972 109.53 27.7487 108.73 30.461C108.656 30.7087 108.658 31.0462 108.353 31.1293L108.352 31.1276Z" fill="#D9CEC1"/>
<path d="M95.0087 31.9741C95.4587 32.3897 93.5966 33.7093 93.262 33.8722C91.7512 34.5999 90.5081 34.186 88.8969 34.3353C88.4318 34.3132 88.4552 33.918 88.4636 33.5363C89.5762 33.1988 90.7523 33.248 91.8716 33.0376C92.3987 32.9393 94.7878 31.7705 95.0103 31.9758L95.0087 31.9741Z" fill="#D9CEC1"/>
<path d="M76.2065 37.4428C78.1139 37.5242 79.807 38.0704 81.7796 37.8754C82.146 37.8397 84.3009 37.1002 84.1236 38.0297C84.0784 38.2638 82.4204 38.7489 82.0975 38.8032C80.0429 39.1509 77.8964 38.6556 76.2065 37.4428Z" fill="#D9CEC1"/>
<path d="M78.4971 34.0859C78.7096 33.862 80.4613 34.4353 80.8595 34.4692C82.4489 34.6049 83.7774 33.7568 85.171 33.8162C85.504 33.8314 86.0377 33.9383 86.0779 34.3573C86.0344 34.6185 84.2174 34.8203 83.8075 34.9001C83.0144 35.0527 82.6597 35.3122 81.6843 35.2631C81.2811 35.2427 79.0894 34.8271 78.7966 34.688C78.5322 34.5625 78.3633 34.2233 78.4971 34.0825V34.0859Z" fill="#D9CEC1"/>
<path d="M102.672 17.2982L97.7409 14.63C97.403 14.2466 95.146 14.0125 95.1292 13.7547C95.1092 13.446 95.6128 13.5597 95.7633 13.563C98.0504 13.6038 101.375 15.3611 102.67 17.2982H102.672Z" fill="#D9CEC1"/>
<path d="M111.955 24.2901C112.146 24.4411 112.887 26.1509 112.971 26.4936C113.451 28.4799 113.397 31.0819 111.954 32.6204C112.539 30.6867 112.931 29.2109 112.511 27.1687C112.348 26.3833 111.596 25.0246 111.639 24.3851C111.649 24.2409 111.925 24.2664 111.957 24.2901H111.955Z" fill="#D9CEC1"/>
<path d="M110.381 29.4144L110.48 25.6556C111.355 26.3341 111.955 29.5349 110.381 29.4144Z" fill="#D9CEC1"/>
<path d="M96.4859 34.1452C96.2015 34.4336 95.5138 34.8984 95.1123 34.6643C95.3616 33.8213 96.1329 33.3752 96.5579 32.7187C96.8624 32.2472 96.9176 31.5602 97.3961 31.226C97.4881 32.1216 97.1217 33.5007 96.4859 34.1452Z" fill="#D9CEC1"/>
<path d="M104.094 12.3435C103.18 11.4241 102.583 10.8067 101.326 10.364C100.731 10.1536 99.8908 10.2249 99.4875 9.74654C101.271 9.6736 103.742 10.2503 104.095 12.3435H104.094Z" fill="#D9CEC1"/>
<path d="M9.417 35.1359L8.18895 32.6628C7.23529 28.892 9.02048 24.9991 11.9316 22.6295C12.1675 22.4378 12.5574 22.046 12.8702 22.0986C13.2768 22.1664 12.969 22.5735 12.882 22.7363C12.2462 23.9237 10.8927 24.9822 10.2084 26.2035C9.57427 27.3383 8.74107 30.2083 8.78624 31.4873C8.83142 32.7662 9.62446 33.9468 9.41867 35.1359H9.417Z" fill="#D9CEC1"/>
<path d="M28.2861 18.5585L24.2773 19.2743C21.147 20.2395 18.7762 22.8771 17.1483 25.6369L16.0809 28.0151C15.8801 26.022 16.5192 24.2596 17.7289 22.7228C20.3406 19.4032 24.2322 18.3261 28.2861 18.5585Z" fill="#D9CEC1"/>
<path d="M23.7253 17.266L19.1528 19.4982C17.56 20.6042 16.8071 21.8475 15.7347 23.3691C15.5105 23.6863 15.1692 24.2562 14.8162 24.3919C16.0258 20.3854 19.5945 17.517 23.7253 17.266Z" fill="#D9CEC1"/>
<path d="M48.7463 35.5701C47.9984 37.1171 46.2701 38.3825 44.7342 39.1152C43.2887 39.8056 40.4745 40.6656 38.9604 40.0821C38.604 39.9447 38.2226 39.8786 38.502 39.3934C40.0161 39.7412 41.7478 39.3765 43.2418 38.9728C45.099 38.4707 45.6896 38.0127 47.0966 36.771C47.3493 36.5488 48.1791 35.5345 48.2561 35.4938C48.4066 35.4157 48.5606 35.6244 48.7479 35.5684L48.7463 35.5701Z" fill="#D9CEC1"/>
<path d="M52.8737 25.4419C51.9217 25.128 51.2759 24.4563 50.2904 24.1103C49.4957 23.8321 48.4852 23.6133 47.652 23.6845C47.4144 23.1214 48.1706 22.9925 48.6658 22.9874C50.2201 22.9721 52.3818 23.8067 52.8753 25.4419H52.8737Z" fill="#D9CEC1"/>
<path d="M34.0899 22.9043C32.0019 22.56 28.7862 22.6889 27.0562 24.0883C25.4032 25.4266 24.1685 30.1608 25.1405 32.1098C26.4455 34.7271 28.9619 36.3691 31.7275 36.9712C32.0337 38.3537 29.0572 37.3495 28.465 37.1358C26.2849 36.347 23.9225 34.0775 23.5093 31.6891C23.352 30.7766 23.5879 30.1965 23.5494 29.4518C23.4775 28.1016 22.9053 27.8183 23.342 26.1068C24.6503 20.9723 30.1799 20.326 34.0915 22.906L34.0899 22.9043Z" fill="#D9CEC1"/>
<path d="M77.4747 15.6647L76.4156 13.8548C75.5975 12.9269 74.6605 11.9991 73.6818 11.2426C73.5145 11.1137 71.8397 10.2435 72.1091 9.99414C72.8553 9.8737 73.7387 10.4267 74.3527 10.849C75.8735 11.8939 77.5567 13.675 77.4764 15.6647H77.4747Z" fill="#D9CEC1"/>
<path d="M87.0363 8.59481C85.8284 8.32511 84.612 8.01469 83.3672 7.94176C82.6311 7.89935 81.8263 8.07067 81.132 8.00791C80.9078 7.98755 80.6518 7.93158 80.881 7.69241C80.9463 7.62456 82.5173 7.30227 82.7198 7.29379C83.4459 7.26156 85.9806 7.62795 86.5879 7.98247C86.8171 8.11647 87.0765 8.2827 87.0363 8.59481Z" fill="#D9CEC1"/>
<path d="M42.5777 30.0879C40.6436 30.5866 38.4686 32.0403 38.7112 34.3251C39.3821 34.9544 43.0344 31.5942 43.4828 30.8614C43.6468 30.5951 43.953 29.5553 44.0885 29.5451C44.6674 29.501 44.1537 30.6002 43.9797 30.8563C43.5263 31.5229 41.2727 33.9095 40.6285 34.3166C38.0721 35.9366 37.0749 33.1191 38.666 31.2142C39.3587 30.3848 41.7562 28.8106 42.5777 30.0879Z" fill="#D9CEC1"/>
</svg>
