<svg width="54" height="75" viewBox="0 0 54 75" fill="none" xmlns="http://www.w3.org/2000/svg">
<g clip-path="url(#clip0_263_35064)">
<path d="M51.0261 6.37927C54.9463 9.96469 53.8989 12.2373 53.7975 16.938C53.7673 18.3666 53.9186 19.8098 53.8646 21.2476C53.7436 24.4894 53.1619 28.0998 52.8356 31.3507C51.7723 41.9226 49.9615 52.2312 48.3271 62.7517C47.8915 65.559 47.8836 69.4828 45.3873 71.342C40.9512 74.6456 30.4921 75.3053 25.0717 74.8879C23.5452 74.7707 22.0055 74.5152 20.4803 74.3586C16.7351 73.9728 12.2714 73.6752 8.99865 71.5355C7.33002 70.4453 6.60362 66.0317 6.17593 64.0882C3.83223 53.4412 2.49259 41.9279 1.42272 31.1032C0.827915 25.0832 0.223894 19.0566 0.0238692 13.059C-0.0498239 10.8337 -0.0274528 9.38402 1.30429 7.52877C5.46795 1.72733 16.8878 0.426412 23.5465 0.0761667C31.4382 -0.339915 44.9478 0.821427 51.0261 6.37927ZM50.1655 6.96126C46.5611 3.67606 40.8999 2.466 36.1677 1.88138C27.3627 0.793776 15.2152 0.500148 7.00235 4.20011C5.13633 5.04149 2.40442 6.73215 1.86094 8.91658C1.82935 9.04167 1.62538 10.5704 1.69381 10.6217C1.97411 10.8298 1.97279 10.4282 2.03464 10.3452C6.19041 4.83082 9.7211 3.64973 16.468 2.84917C25.5599 1.76946 36.427 1.92747 45.0754 5.1837C47.5507 6.11593 49.8155 7.1693 51.2459 9.42088C51.5907 9.96469 52.1171 10.1767 51.917 11.0391C51.6209 11.1036 51.6025 10.8877 51.4775 10.7165C49.4312 7.90535 48.2311 7.23251 44.9767 5.97768C38.2259 3.37453 30.1841 2.915 22.9846 3.12041C17.4484 3.27841 10.1396 3.76691 5.59034 7.23382C4.1191 8.35434 3.06108 9.87252 1.72671 11.1023C2.32678 13.1472 3.63089 14.8457 5.27188 16.173C6.70231 17.3304 11.1068 18.817 13.0189 19.3621C17.3273 20.5892 22.9596 20.8381 27.4351 20.8895C33.9754 20.9645 39.1207 20.6696 45.3965 18.4641C49.0035 17.1961 52.5447 15.3 52.7329 10.9746C52.7961 9.51832 51.1827 7.88691 50.1655 6.95995V6.96126ZM3.71248 16.2375C2.46627 15.0261 1.22533 13.6726 0.998988 11.8739L0.717375 13.1867C2.26756 28.3789 3.66905 43.5172 6.29569 58.558C6.4286 59.323 7.20369 64.0645 7.41687 64.3002C7.53005 64.4253 9.31447 65.2706 9.60662 65.3786C10.837 65.8342 13.2347 66.3266 14.5598 66.5294C14.8967 66.5807 15.2323 66.5676 15.5692 66.5623C15.631 66.5004 15.5021 65.422 15.4047 65.3378C15.3205 65.2653 13.6308 64.9269 13.2426 64.7953C12.224 64.4503 10.6475 63.9341 9.73426 63.447C9.56319 63.3561 8.58412 62.707 8.48674 62.6122C8.30251 62.4318 8.15644 62.0117 8.08011 61.7563C5.96407 51.6887 4.73102 41.4605 3.48087 31.2533C3.01239 27.4296 1.73724 21.3029 2.11228 17.6359C2.15044 17.2606 2.18861 16.5259 2.70577 16.6115C3.18873 16.6918 5.03895 18.5865 5.70088 19.0395C6.60757 19.661 7.72349 20.2522 8.75256 20.6353C8.81047 21.0606 8.73282 21.4899 8.78941 21.9178C8.97891 23.382 9.26052 25.386 9.58556 26.8002C9.73558 27.4546 9.98166 28.4908 10.5028 28.9477C11.4239 29.7536 15.202 30.0275 16.5404 30.2658C18.2642 30.5713 19.8592 31.3257 21.6541 31.0084C22.1963 29.8813 22.141 28.8635 21.916 27.6626C21.6712 26.3604 20.8396 24.3906 20.7119 23.1713C20.6922 22.9791 20.6738 22.434 20.9106 22.4247C21.2436 22.4129 21.4002 23.1002 21.4936 23.3649C22.0739 25.0081 22.6977 27.793 22.7372 29.5087C22.7451 29.8563 22.5779 30.2381 22.645 30.6094C22.7135 30.6871 23.3859 30.2513 23.5202 30.1683C25.502 28.9372 27.3561 27.4849 29.384 26.3183C30.1881 25.3123 28.555 22.8329 30.2249 22.7105C32.7989 22.5222 35.4229 22.9053 38.0785 22.247C38.9049 22.0416 39.68 21.1396 40.088 22.3879C40.5959 23.9403 40.6828 25.835 40.8512 27.448C40.9302 28.2051 40.8249 28.5738 41.7158 28.5277C43.4081 28.4408 45.7413 27.926 47.4454 27.5902C47.9837 27.4836 47.9258 27.8865 48.51 27.1294C49.5286 25.8087 50.4603 21.8309 50.7708 20.0915C51.0077 18.7695 50.9774 17.3514 51.3617 16.0347C48.3784 18.4285 44.2135 19.9796 40.5064 20.9237C38.3825 21.4649 35.8651 21.744 33.6688 21.8546C24.6769 22.3115 14.8652 21.8085 6.47729 18.2573C5.33373 17.7728 4.57969 17.0763 3.71248 16.2336V16.2375ZM39.0168 66.7006C40.8459 66.0685 42.5738 65.7183 44.3372 64.8756C45.1728 64.4766 47.3533 63.4101 47.5586 62.5463C48.4916 55.1293 49.926 47.8268 50.8498 40.4426C51.5604 34.7584 52.2368 28.9096 52.75 23.1832C52.9369 21.1001 52.7921 19.021 52.8921 16.9393C52.954 15.645 53.283 14.2901 53.3054 12.9826L52.8974 14.0294C52.4882 14.4718 52.2552 15.034 51.9183 15.5199C51.8341 15.641 51.6525 15.6094 51.6446 15.6213C51.4578 15.9136 51.8433 15.8754 51.9276 15.9926C52.1907 16.3573 51.5946 19.4911 51.5183 20.1455C50.2971 30.6437 49.2983 41.1418 47.935 51.5386C47.5704 54.3142 47.3152 57.9089 46.5453 60.562C46.0084 62.4133 44.9754 63.1125 43.2173 63.7537C42.3435 64.0724 39.909 64.5227 39.301 64.9717C38.7983 65.3417 39.1734 66.1725 39.0181 66.6992L39.0168 66.7006ZM5.02185 28.529C5.52191 28.2012 4.8034 25.207 4.73234 24.5736C4.61522 23.5347 4.64154 21.4925 4.25991 20.6182C3.9783 19.973 3.63484 20.077 3.67037 20.7828C3.74801 22.3405 3.79933 23.8797 3.98751 25.4176C4.03883 25.8324 4.42572 28.2815 4.53231 28.3895C4.65601 28.5145 4.90209 28.6067 5.02185 28.529ZM13.5742 34.1343C11.2265 32.4278 8.52754 30.508 5.4061 31.065C4.74023 31.1835 3.19662 31.9512 4.53231 32.0038C5.89037 32.0578 6.34569 31.9262 7.82877 32.3172C10.2804 32.9637 12.5991 34.0803 14.1545 36.1225C14.2098 37.4524 13.9716 38.7889 14.0374 40.1253C14.0914 41.2379 14.4046 42.4678 14.4651 43.5843C14.5835 45.7648 14.3769 48.0546 14.4612 50.2509C14.6006 53.9061 15.0954 57.5836 15.4297 61.2191C15.4679 61.6404 15.3599 63.9447 15.7797 64.0619C16.4877 64.2594 16.2719 62.6266 16.2653 62.179C16.2022 58.1143 15.4376 53.906 15.2876 49.8414C15.2047 47.6003 15.4244 45.2539 15.2994 43.0287C15.2389 41.9556 14.9402 40.7929 14.8783 39.7013C14.8375 38.9824 14.7493 36.378 14.9059 35.8447C15.027 35.4312 16.7167 34.4082 17.1641 34.2185C19.5776 33.1928 22.6753 32.8689 25.1401 33.8775C25.7336 34.1198 27.5417 35.1613 27.7088 35.7551C27.8273 36.1765 27.3904 38.0647 27.3575 38.7243C27.1311 43.1827 27.4219 47.7372 27.3404 52.1759C27.2706 55.9851 26.7903 60.0985 26.9429 63.863C26.9666 64.4477 27.0153 65.0612 27.0851 65.6419C27.1035 65.792 27.5627 65.8368 27.6825 65.5603C28.1273 64.5306 27.8838 62.3778 27.9654 61.198C28.022 60.3816 28.151 59.6798 28.1918 58.8569C28.5655 51.3082 28.3681 43.7397 28.3997 36.1581C30.0341 31.884 38.7549 31.1045 41.3105 34.4924C42.5001 36.0672 41.4947 38.5927 41.2499 40.4124C40.2748 47.6688 39.6998 54.9489 38.7246 62.175C38.697 62.3817 37.8561 65.1613 38.9602 64.2159C39.3747 63.8617 39.9906 59.4099 40.109 58.5633C41.0341 51.9731 41.8066 45.3119 42.483 38.7296C42.6791 36.8191 42.154 35.7091 43.6055 34.054C44.5556 32.9703 47.0283 32.0052 48.4429 31.9077C48.7482 31.8866 49.9589 32.2277 49.8378 31.6549C49.6431 30.7279 47.352 31.1322 46.7151 31.3033C44.9925 31.7668 43.341 32.624 42.2738 34.079C41.9948 34.1659 42.0895 33.9025 41.9342 33.7379C41.1328 32.8926 39.505 31.8353 38.3575 31.618C34.9308 30.9702 30.2947 31.6733 28.1247 34.6359H27.9207C26.9706 33.2666 24.9006 32.6345 23.2517 32.4331C21.0949 32.1697 18.9959 32.5002 16.9996 33.3601C16.0363 33.7748 15.331 34.391 14.6678 35.1876C14.5914 35.1876 13.7703 34.2752 13.5755 34.133L13.5742 34.1343ZM5.85353 33.3877C5.81668 33.3574 5.55349 33.4061 5.44032 33.3877C5.55481 35.6077 5.62718 37.8948 5.86669 40.1095C5.91538 40.5664 6.19831 41.1339 6.25489 41.6646C6.60625 44.9379 6.6602 48.867 7.42082 52.0192C7.68006 53.095 8.16302 52.9159 8.13144 51.8322C8.0209 48.0664 7.21159 43.3328 6.70495 39.5499C6.59572 38.7336 6.12066 33.6102 5.85353 33.3903V33.3877ZM16.8154 36.1633C16.7035 36.1818 16.4285 36.137 16.4009 36.1633C16.2377 36.32 16.2311 40.1543 16.2548 40.681C16.3245 42.1768 16.4074 44.0649 16.539 45.5317C16.5904 46.0966 16.943 47.4555 17.3023 46.2362C17.7273 44.7931 17.1457 42.0214 17.0378 40.4848C16.9378 39.0535 17.018 37.5946 16.8141 36.162L16.8154 36.1633ZM8.67229 69.7145C9.20788 70.3913 11.9253 71.4552 12.8228 71.737C16.7272 72.9668 21.7949 73.4764 25.906 73.7779C30.5802 74.1216 35.5098 73.4908 40.0156 72.2123C41.5263 71.7831 45.6623 69.9515 46.3006 68.5058C46.7059 67.5867 46.7835 66.5083 46.9612 65.5576C47.0099 65.2969 47.4112 64.0158 47.3388 63.9249C46.3493 64.5859 45.3228 65.2443 44.245 65.7552C37.0915 69.1496 24.3966 69.8686 16.668 68.278C14.8888 67.9119 10.841 67.0771 9.33948 66.3398C8.75783 66.054 8.29593 65.4339 7.66164 65.3127C7.5011 65.4892 8.36699 69.3261 8.67361 69.7132L8.67229 69.7145ZM38.3206 65.3141L32.8226 66.4056C31.1224 66.3582 29.4603 66.5913 27.7759 66.7006C27.9273 67.2128 27.5509 68.0831 28.2615 68.1015C28.9748 68.12 30.1446 67.8632 30.9039 67.8053C32.745 67.6631 34.6926 67.5459 36.5691 67.2404C36.881 67.1904 38.0943 66.9652 38.1627 66.7532C38.2838 66.3819 38.1061 65.7301 38.3193 65.3154L38.3206 65.3141ZM26.9245 66.7203C26.7205 66.5939 24.2479 66.8691 23.6781 66.8454C22.8503 66.8112 21.4502 66.6808 20.6316 66.561C20.0053 66.4701 16.4693 65.4734 16.2614 65.5919L16.4074 66.9718C19.925 67.7105 23.4938 68.3622 27.0798 68.0871C27.1416 68.0278 27.0772 66.8164 26.9232 66.7203H26.9245Z" fill="#D9CEC1"/>
<path d="M38.5548 18.9106C38.0534 19.5255 35.9729 19.8824 35.1583 20.0219C33.0199 20.3893 30.8341 20.3129 28.6852 20.6197C27.8732 20.4907 27.564 18.5433 26.9994 17.9692C26.3823 18.2971 25.6572 18.2826 25.0242 18.4893C24.4833 18.6657 21.6409 20.2892 21.2553 19.7836C21.1066 19.5874 21.454 19.4215 21.5738 19.3412C22.1081 18.9804 24.1122 17.9916 24.7242 17.7743C25.1005 17.6413 26.6507 17.3477 27.0165 17.349C27.5495 17.3516 27.9588 18.8461 28.2812 18.937C29.984 18.4906 31.85 19.0765 33.5081 19.037C34.7056 19.0081 36.1387 18.5775 37.2862 18.5288C37.5284 18.5183 37.6915 18.5749 37.9008 18.6736C37.885 17.1831 36.8322 17.6203 35.919 17.3964C35.8321 17.3754 34.7859 16.9 34.6754 16.8368C34.3701 16.6617 32.0816 14.8854 32.079 14.7182C32.5685 14.1718 33.3831 14.8354 33.8674 15.1475C34.753 15.7189 35.411 16.7473 36.5151 16.8697C36.6164 15.6004 36.6085 14.3272 36.6559 13.0552C36.6796 12.4021 37.0336 10.9603 36.6651 10.406C36.5453 10.2256 36.2703 10.1611 36.1479 10.0215C35.7847 9.60542 34.403 7.88316 34.095 7.70409C33.8726 7.57505 33.7226 7.53423 33.4647 7.5711C33.5897 8.51255 33.0633 13.7834 32.5014 14.1731C32.3317 14.2903 32.1264 14.2758 32.0053 14.0994C31.8277 13.8413 32.7107 8.90625 32.6922 7.92003C32.6804 7.29328 32.783 7.09709 32.2461 6.92328C31.2513 6.60069 28.9049 6.83374 27.7995 6.97595C25.4716 7.27484 23.0029 7.86341 20.7316 8.43618C20.4 9.52116 19.613 10.3204 19.0616 11.2777C18.5945 12.0887 17.2364 15.1383 16.7271 15.4661C16.4995 15.6136 16.0665 15.7518 15.7915 15.7492C14.5624 15.7413 12.9069 15.3147 11.6107 15.208C10.7185 15.1343 9.79734 15.2238 8.90645 15.0698C9.40256 15.532 10.5724 16.9711 11.2054 17.0119C11.7673 17.0475 13.9952 15.6886 14.4453 16.0494C14.8427 16.3681 14.1452 16.7525 13.8557 16.8974C13.3728 17.1383 11.1409 17.9916 10.6869 18.0337C10.3092 18.0679 10.1513 17.9639 9.82366 17.827C8.57746 17.3069 5.15994 15.4029 4.32957 14.4404C2.55172 12.3797 2.78728 10.7352 4.65066 8.86938C9.74207 3.77238 20.3973 3.45506 27.1547 3.54459C32.8396 3.61965 39.4075 4.6085 44.7411 6.63097C46.4426 7.27616 49.8601 9.21304 50.6023 10.8998C50.8129 11.379 51.5774 13.9769 50.3812 13.7518C48.9561 13.0644 47.6625 11.9321 46.3044 11.1749C44.6161 10.2335 45.0411 10.6048 43.4922 11.1473C42.2618 11.5779 39.0378 12.3995 38.2495 13.2593C37.8955 13.6451 37.5981 14.6116 37.6271 15.133C37.6823 16.1258 39.0851 18.2641 38.5561 18.9133L38.5548 18.9106ZM47.0611 9.79108C47.3743 9.45532 46.2255 8.80618 46.0228 8.67978C43.941 7.3815 39.7023 6.14905 37.2599 6.05425C36.5769 6.02791 36.3466 6.39791 37.1402 6.60068C39.0957 7.10104 41.1433 7.14317 43.1119 7.84366C44.5055 8.33875 45.7175 9.19988 47.0611 9.79108ZM20.2841 8.12807C17.5562 7.67776 14.7269 7.51448 11.995 7.95427C10.5237 9.64493 8.90513 11.2184 7.76552 13.1592C7.68524 13.3594 7.57076 13.7583 7.67998 13.9348C8.02476 14.4891 11.2673 14.4272 12.0266 14.5115C13.4609 14.6721 14.8782 14.9802 16.3047 15.187C16.5719 15.1001 17.743 12.1743 18.0391 11.6411C18.6971 10.4573 19.6946 9.38553 20.2828 8.12676L20.2841 8.12807Z" fill="#D9CEC1"/>
<path d="M21.1172 8.82067C21.2001 8.90626 20.6777 10.801 20.6395 11.1578C20.6105 11.437 20.7369 11.7596 20.7053 12.0861C20.625 12.9275 20.0921 15.3081 20.7842 15.7453C21.6541 16.2943 27.1982 15.5214 28.5786 15.3819C29.2761 15.3121 30.0196 15.4385 30.7815 15.2265C31.0605 15.1488 31.9685 14.4562 31.9422 14.9974C31.908 15.6873 31.4224 15.927 30.8276 16.1047C29.2734 16.5682 23.7872 16.9948 22.1581 16.8671C18.9301 16.6143 19.5986 15.1053 19.9118 12.6813C19.9868 12.1046 19.9407 11.4739 20.0671 10.8919C20.1065 10.7102 20.7711 8.45858 21.1145 8.81804L21.1172 8.82067Z" fill="#D9CEC1"/>
<path d="M28.1745 11.753C28.2047 11.9939 28.3047 12.1875 27.9902 12.1493C27.5573 12.0966 26.2295 11.5304 25.7636 11.3211C25.1386 11.0393 23.616 10.3059 23.1028 9.95829C22.9251 9.83847 22.7238 9.80028 22.783 9.51587C23.2015 9.14851 27.4415 11.5199 28.1745 11.7543V11.753Z" fill="#D9CEC1"/>
<path d="M41.7908 17.2858L44.0279 13.071C44.3161 12.6944 44.7767 12.572 44.6806 13.1645C44.6516 13.3449 43.0593 15.9573 42.8198 16.3022C42.7119 16.4576 41.9934 17.4899 41.7921 17.2845L41.7908 17.2858Z" fill="#D9CEC1"/>
<path d="M22.5765 11.0407C22.8015 10.9959 26.2361 12.5944 26.248 12.9143C26.2532 13.0697 26.0124 13.1039 25.8308 13.0605C25.3058 12.9354 22.7081 11.6911 22.433 11.3198C22.3028 11.2434 22.5396 11.0486 22.5765 11.0407Z" fill="#D9CEC1"/>
<path d="M21.2554 17.4254C20.6816 17.5834 17.2536 16.0652 17.2352 15.8296C17.2154 15.5688 17.7339 15.6413 17.9287 15.6874C18.1445 15.7374 20.8317 16.8579 20.9659 16.9514C21.137 17.0699 21.3015 17.1792 21.2541 17.4241L21.2554 17.4254Z" fill="#D9CEC1"/>
<path d="M27.7758 10.2098C27.8508 10.3164 27.6718 10.5995 27.5613 10.6219C27.4362 10.6483 25.5663 9.56592 25.3215 9.40133C25.1412 9.28019 24.9438 9.24332 25.0017 8.95891C25.1518 8.82724 26.2216 9.28283 26.4414 9.39211C26.6111 9.47638 27.731 10.1466 27.7758 10.2098Z" fill="#D9CEC1"/>
<path d="M43.5936 16.5919L44.8095 14.5484L45.2556 14.0941C45.2754 14.3338 45.2609 14.5589 45.1912 14.792C45.1069 15.0764 43.8528 16.8566 43.5923 16.5919H43.5936Z" fill="#D9CEC1"/>
<path d="M42.8999 13.8176C42.792 13.9927 42.0643 15.4806 41.7906 15.2041C41.6945 15.1066 42.6275 13.5595 42.8999 13.8176Z" fill="#D9CEC1"/>
<path d="M16.1758 25.8392C16.4166 26.0301 17.9524 26.9557 17.6484 27.281C17.5497 27.3863 16.3101 26.6318 16.1324 26.5094C15.0704 25.7786 13.7268 24.766 12.7307 23.9444C12.4714 23.7311 11.9885 23.4664 11.9622 23.1188C12.2556 23.0701 12.4491 23.1596 12.703 23.2782C13.6176 23.7074 15.3284 25.165 16.1758 25.8392Z" fill="#D9CEC1"/>
<path d="M47.3387 20.3406C47.5243 20.5526 46.4123 22.5303 46.2044 22.8818C45.9162 23.3677 45.5438 24.2328 44.9819 24.3645C44.7121 24.0577 46.5057 21.0398 46.865 20.629C47.0032 20.4709 47.0782 20.2866 47.3387 20.3406Z" fill="#D9CEC1"/>
<path d="M15.2901 27.1414C15.0006 27.1823 14.7993 27.1098 14.5466 26.9834C13.7478 26.5818 12.5253 25.3876 11.8213 24.7832C12.5622 24.9452 13.5439 25.5219 14.1703 25.9709C14.3295 26.0854 15.4849 26.965 15.2888 27.1401L15.2901 27.1414Z" fill="#D9CEC1"/>
<path d="M17.5088 25.198C17.3837 25.3165 16.4797 24.6594 16.2994 24.5356C15.777 24.1749 14.9466 23.5692 14.4886 23.1597C13.9938 22.7173 14.3123 22.5895 14.8597 22.924C15.4217 23.2677 16.3836 23.9471 16.8824 24.3697C17.0021 24.4711 17.6627 25.0531 17.5088 25.1993V25.198Z" fill="#D9CEC1"/>
<path d="M44.6845 23.5139C44.1266 23.6719 44.2397 23.3111 44.3805 22.8634C44.4713 22.5751 45.3978 21.0437 45.6057 21.0372C45.7531 21.0332 45.8083 21.2781 45.757 21.4598C45.6123 21.9668 44.7714 22.8595 44.6858 23.5139H44.6845Z" fill="#D9CEC1"/>
<path d="M48.0324 21.4519C48.1403 21.5796 47.1888 23.8694 46.8559 23.8102C46.523 23.7509 46.7625 23.4836 46.8085 23.3506C46.8954 23.0991 47.0888 22.7594 47.2204 22.5119C47.2875 22.3855 47.831 21.2123 48.0324 21.4519Z" fill="#D9CEC1"/>
<path d="M14.873 13.1224C14.6256 13.0421 14.5019 12.7827 14.3808 12.5746C14.1558 12.1888 12.6583 8.97211 12.7938 8.81937C12.9491 8.64425 13.1675 9.03663 13.236 9.13933C13.59 9.66338 14.1821 10.9301 14.4374 11.545C14.6467 12.048 14.9349 12.5562 14.8717 13.1211L14.873 13.1224Z" fill="#D9CEC1"/>
<path d="M13.6242 13.2606C13.2558 13.3304 13.3821 13.1829 13.2847 12.9828C12.882 12.1585 12.2991 11.0011 12.1017 10.1321C12.0701 9.99515 11.8556 9.71206 12.1701 9.6528C12.453 9.60014 12.4741 9.93722 12.5557 10.0979C13.0215 11.0143 13.6242 12.2349 13.6242 13.2606Z" fill="#D9CEC1"/>
<path d="M15.2888 11.5963C14.8756 11.5436 14.0729 9.63572 14.1808 9.51458C14.419 9.24992 15.1283 10.7865 15.1822 10.9406C15.2585 11.1618 15.3243 11.3567 15.2888 11.5963Z" fill="#D9CEC1"/>
</g>
<defs>
<clipPath id="clip0_263_35064">
<rect width="54" height="75" fill="white"/>
</clipPath>
</defs>
</svg>
