<svg width="99" height="72" viewBox="0 0 99 72" fill="none" xmlns="http://www.w3.org/2000/svg">
<g clip-path="url(#clip0_263_35086)">
<path d="M80.2621 8.94664C80.927 9.68846 81.7762 10.7844 82.1673 11.71C82.8221 13.2587 83.5004 15.6646 82.8824 17.2502C85.5251 16.0657 89.0305 16.366 91.4966 17.8811C97.6167 21.6395 98.3777 29.0993 94.574 34.8849C94.4801 35.0272 94.2701 34.9846 94.2611 34.9981C94.0488 35.3152 95.3495 36.001 95.6065 36.2565C97.201 37.8399 98.9107 44.5174 98.9956 46.799C99.1643 51.334 94.3192 57.2316 91.1849 60.1922C85.41 65.6461 77.5099 67.8996 70.088 70.2484C65.7826 71.611 60.4279 71.4496 55.9627 71.769C45.6456 72.5064 36.1162 71.5158 26.0918 68.3019C20.2645 66.4339 14.6595 63.8263 9.54955 60.4466C6.67779 58.5483 4.64185 56.1962 2.71095 53.3622C-4.15448 43.2859 3.08417 30.8115 12.5934 25.7465C13.9108 25.045 15.1087 24.5396 16.491 24.032C16.5625 23.6588 16.5468 23.2554 16.5223 22.8767C16.3725 20.5414 15.9825 18.2049 15.7233 15.9167C15.2048 11.3357 19.1705 7.07077 22.8413 4.97079C28.3468 1.81858 35.6201 0.786517 41.8843 0.301303C53.0809 -0.564911 72.1641 -0.0942648 80.2621 8.94664ZM77.7602 8.12861C72.0144 3.7247 66.4173 2.72625 59.4379 1.70652C53.0641 0.775311 47.9754 0.626273 41.5681 1.25268C35.9419 1.80289 29.9816 2.62316 24.7923 5.02682C21.2802 6.65391 17.7257 9.50357 17.0351 13.5657C16.9703 13.9501 16.8061 15.7183 16.8418 16.0456C16.9279 16.8244 18.4643 18.6207 19.0711 19.2101C27.2461 27.1495 44.5248 28.4852 55.3157 27.5562C61.5788 27.0172 75.7701 25.3364 79.9626 20.4215C80.2464 20.0886 82.2544 16.7583 82.3327 16.4624C82.6623 15.2219 81.9751 13.2968 81.3862 12.1739C80.4353 10.3586 79.3547 9.35005 77.7591 8.12637L77.7602 8.12861ZM91.1927 18.8997C90.7133 18.5579 90.0127 18.0447 89.4719 17.8519C88.6003 17.5393 85.1676 17.3992 84.2189 17.4844C83.7842 17.5236 83.3953 18.0626 82.9014 18.0637C82.7606 20.5839 82.85 23.1736 82.2511 25.6456C82.536 25.714 82.6914 25.3924 82.8713 25.2019C83.8188 24.1934 84.6938 22.8811 86.1408 22.4968C88.6796 21.8244 91.5737 23.112 92.442 25.6479C92.8398 26.811 92.7101 27.619 92.1503 28.6802C90.3177 32.1518 85.638 34.6989 81.9729 35.7432C81.4086 35.9046 79.1022 36.1366 78.8139 36.4582C78.6619 36.6274 78.4753 37.6337 78.3334 37.9542C78.1066 38.464 77.8105 39.0456 77.5389 39.5342C76.8294 40.8139 75.7656 41.8975 75.1432 43.2299C75.4885 43.5246 80.7984 41.995 81.6197 41.7249C85.4704 40.4587 91.7637 37.6561 93.9482 34.1251C95.5897 31.4716 96.525 27.4554 95.526 24.4544C94.6701 21.8838 93.3225 20.4181 91.1938 18.8975L91.1927 18.8997ZM25.7834 24.6046C23.6357 23.6913 20.6835 22.304 18.9683 20.7408C18.6185 20.4215 17.3715 18.8941 17.2318 18.8369C16.9066 18.7036 17.0106 19.0543 16.9972 19.228C16.7055 22.9898 20.3092 32.7412 21.6244 36.7708C22.8714 40.592 27.7735 46.9839 30.918 49.4727C38.2851 55.3042 49.0883 56.2578 58.0925 54.6991C64.9981 53.5046 68.87 49.6778 73.0804 44.4155C75.7812 41.0391 78.0943 35.8643 79.395 31.736C80.585 27.9574 81.6041 23.9255 81.6142 19.943C79.5514 21.7706 77.444 23.7664 74.8203 24.7727C67.4643 27.5955 58.678 28.2678 50.884 28.8124C43.3168 29.3413 32.688 27.5405 25.7812 24.6024L25.7834 24.6046ZM89.3635 30.7174C91.1323 28.8864 92.5794 26.7472 90.3948 24.5318C89.1813 23.3014 87.6125 22.9854 86.0045 23.6297C84.8837 24.0779 84.7899 24.5575 84.1529 25.2579C83.83 25.6143 83.316 25.8832 83.0433 26.3606C85.2156 27.6145 87.9902 28.5401 89.3635 30.7174ZM16.9882 25.7969C17.2139 25.5257 16.9927 24.952 16.3591 25.0786C14.2841 25.4921 9.55738 28.9054 7.9103 30.4059C1.68739 36.0727 -1.13298 44.9545 3.59483 52.4736C5.86877 56.0909 7.62983 57.8569 11.2603 59.9961C15.4417 62.4614 20.3349 64.9715 24.9007 66.5964C33.7182 69.734 42.3916 70.57 51.683 70.6339C62.0906 70.7056 76.6606 68.4409 85.5877 62.8189C90.587 59.67 98.0212 53.0787 97.8011 46.6398C97.6927 43.4596 96.3183 38.5167 94.0969 36.1848C93.9885 36.0716 93.8957 35.8912 93.7046 35.945C93.6521 35.9595 93.0331 36.6969 93.0487 36.8145C93.0789 37.0353 95.0958 39.9017 95.3953 40.5864C96.078 42.1485 96.078 44.7304 95.7663 46.4101C94.8154 51.5357 89.4584 56.7072 85.0402 59.1008C72.5452 65.8691 61.6146 67.4054 47.5619 66.7981C42.0273 66.5594 36.9733 66.0013 31.565 64.8247C22.7597 62.9085 11.6101 59.809 5.71681 52.5621C-2.94208 41.9121 5.71234 31.6923 15.4685 26.4121C15.8037 26.2306 16.9346 25.8597 16.9871 25.7958L16.9882 25.7969ZM23.067 41.9009C21.2623 39.2406 19.6544 34.9118 18.6912 31.7921C18.1693 30.1011 17.9436 28.2869 17.3961 26.5948C17.1882 26.3303 17.2273 26.5107 17.081 26.6004C10.8826 30.3487 1.93993 36.447 3.27524 44.8749C4.16806 50.5103 7.72257 53.7399 12.3643 56.5133C19.7091 60.9027 27.8775 63.2873 36.2726 64.5468C53.3256 67.1051 71.3484 66.6491 86.3442 57.2395C91.4083 54.0615 95.8456 46 93.908 40.0194C93.8141 39.7281 92.7917 37.4589 92.671 37.3771C92.4319 37.2135 90.4194 38.752 89.9758 39.0176C85.1497 41.9065 80.0531 43.3375 74.5163 44.2776C70.8925 49.0805 66.3312 53.5046 60.4804 55.386C57.9718 56.1929 54.5067 56.3374 51.8338 56.538C48.1117 56.8181 41.2541 55.4746 37.5621 54.5366C32.1739 53.1673 26.1108 46.3888 23.067 41.902V41.9009ZM89.2014 30.7208C89.1892 30.704 88.9411 30.6872 88.8115 30.5639C87.5186 29.3268 85.3866 27.9451 83.7283 27.2559C83.497 27.1595 82.7472 26.801 82.5796 26.9242C82.5517 26.9455 82.3762 27.4946 82.4109 27.5428C82.4869 27.6481 84.3831 28.3642 84.782 28.576C85.4246 28.9189 86.2984 29.3895 86.8839 29.7952C87.3421 30.1123 88.2159 31.1724 88.4092 31.2811C88.8461 31.5287 89.3445 30.918 89.2026 30.7208H89.2014ZM79.4073 35.3107C82.6578 35.1303 85.6056 33.5166 88.2516 31.7472C86.4191 30.0563 84.249 28.7911 81.9371 27.8655C81.4812 30.481 80.2576 32.8286 79.4084 35.3107H79.4073Z" fill="#D9CEC1"/>
<path d="M19.2095 22.7961H19.6821C20.2733 24.9028 20.5034 27.2941 21.0342 29.3717C21.289 30.3724 21.8421 32.032 22.2086 33.017C22.4612 33.696 24.3217 37.4937 24.2759 37.7481C24.2412 37.9419 23.7652 38.0249 23.5495 37.8624C23.3573 37.7178 22.1338 35.7971 21.9784 35.4666C21.3896 34.2205 19.2106 27.0476 19.2106 25.8855V22.7961H19.2095Z" fill="#D9CEC1"/>
<path d="M25.5029 38.6692C25.6336 38.7443 26.8192 40.8084 27.1153 41.2107C27.6193 41.8943 28.1545 42.6025 28.6909 43.2659C29.044 43.7018 30.5603 44.7607 29.634 45.2235C29.187 45.4465 27.6047 43.6973 27.2628 43.3185C26.5555 42.5364 24.6547 40.0498 24.7307 39.0379C24.7587 38.6602 25.2101 38.5022 25.5029 38.6703V38.6692Z" fill="#D9CEC1"/>
<path d="M77.6149 19.5744C75.2426 22.1775 71.6132 23.6119 68.3146 24.5868C56.8186 27.9844 41.3926 26.7943 29.9871 23.0011C24.7855 21.271 16.197 16.5219 21.5841 10.2074C27.8383 2.87652 45.6388 1.6293 54.6776 2.36217C62.1721 2.96952 72.7921 4.81962 78.1501 10.5111C79.3625 11.7998 80.6677 14.004 80.1246 15.8327C80.0263 16.1644 77.9445 19.2124 77.6149 19.5744ZM73.9766 8.59824C73.0681 7.93037 71.3126 7.1594 70.2399 6.71901C63.2326 3.84358 57.1113 3.26312 49.6302 3.47491C41.5423 3.70463 31.7414 4.2145 24.857 8.85933C24.029 9.41739 21.012 12.2121 20.803 13.0671C20.1661 15.6669 21.7864 17.972 23.9977 19.1833C25.5275 20.0215 28.2249 21.5881 29.7904 22.0879C38.6058 24.9028 49.5654 26.587 58.7651 25.4664C64.0114 24.8277 75.9734 22.5989 78.0484 16.9208C79.158 13.884 76.265 10.2825 73.9754 8.59824H73.9766Z" fill="#D9CEC1"/>
<path d="M91.8863 23.2701C91.2461 23.2298 90.9343 22.6078 90.4169 22.2896C88.5218 21.1253 86.6155 21.0917 84.5348 21.6811C84.3527 21.7327 83.1828 22.4554 83.2006 21.9243C83.204 21.8358 83.87 21.271 84.0331 21.178C85.1751 20.528 87.4915 20.611 88.7229 20.9774C89.8113 21.3012 91.4293 22.1574 91.8863 23.2701Z" fill="#D9CEC1"/>
<path d="M40.2237 5.21179C40.1991 5.42919 40.3231 5.70149 40.1242 5.85949C39.7275 6.1755 36.335 6.90836 35.4891 7.19747C33.1169 8.00766 30.3848 9.11704 28.6852 10.9895C22.8634 17.4038 34.0142 21.1062 38.6414 22.2436C40.6829 22.7456 43.434 23.3138 45.509 23.4359C45.7951 23.4527 47.4925 23.4774 47.4925 23.1927C46.4924 22.6179 45.3168 22.9104 44.2542 22.7949C40.8282 22.4251 33.4733 21.1421 31.1334 18.5255C28.1108 15.1469 28.3723 11.0232 32.9135 9.36917C33.6577 9.09799 35.193 8.70915 35.7115 9.49916C36.2166 10.2701 35.3204 11.5353 35.7149 12.8228C35.9305 13.5277 36.6054 13.7809 36.9921 14.2314C37.4614 14.7794 37.5932 15.278 38.2525 15.8226C41.293 18.335 45.7605 17.3052 48.2255 20.4058C48.3383 20.4249 49.7429 19.5833 50.0905 19.4623C53.5958 18.2487 58.3538 18.1109 61.0825 15.2758C61.9686 14.3547 62.762 12.3925 61.8189 11.2831C61.5105 10.9212 59.2969 9.85551 60.5652 9.20445C61.3965 8.77862 64.7577 9.58096 65.6438 10.0628C69.6006 12.2087 70.318 17.0194 66.5959 19.8534C65.1421 20.9605 61.0468 22.173 59.1885 22.5652C56.3201 23.1703 53.3287 23.0347 50.495 23.7508C50.4503 23.8102 50.5967 23.9525 50.6525 23.9895C50.7754 24.069 53.2148 23.9368 53.5735 23.9054C58.0498 23.5166 68.1044 21.597 70.8767 17.8083C71.3896 17.1068 71.9204 15.5671 71.7572 14.7222C71.3259 12.4923 68.2429 10.1278 66.2472 9.30194C63.7621 8.27324 60.3216 8.19031 58.1482 7.12464C57.6476 6.87923 57.6018 6.57443 58.1593 6.48142C63.1285 5.6477 71.3795 8.3965 73.3238 13.4537C75.5553 19.2584 67.9468 22.4744 63.6436 23.7037C60.4534 24.6148 55.5837 25.7264 52.3186 25.658C45.7158 25.518 35.5003 23.6354 29.6931 20.4495C27.9633 19.5004 25.3642 18.0123 24.6971 16.1117C23.383 12.3645 26.257 9.87344 29.2193 8.19592C32.4911 6.34359 36.4479 5.1905 40.2281 5.21403L40.2237 5.21179ZM38.9587 5.68804C35.6389 6.03991 32.2307 6.96551 29.3188 8.6139C26.4269 10.25 23.7965 12.7175 25.4536 16.2978C25.9676 17.4083 29.2148 19.7469 30.377 20.3913C35.7529 23.3743 48.9473 25.6625 54.9948 25.0115C56.8676 24.8097 59.2902 24.2976 61.1183 23.864C65.7187 22.7748 75.5721 19.8343 72.7249 13.2565C70.6812 8.53434 63.2604 6.52176 58.5516 6.7963L61.6748 7.54374C64.7432 7.89224 68.5569 9.33219 70.5538 11.7896C70.8119 12.1068 72.0455 13.8728 72.1494 14.1507C72.7394 15.733 71.8008 17.5741 70.6599 18.6219C66.778 22.1831 58.4264 24.0612 53.2639 24.3873C52.7175 24.422 50.6715 24.4781 50.2804 24.3559C49.6837 24.1677 50.1966 23.4774 50.6123 23.3138C51.9856 22.7725 54.53 22.8442 56.081 22.619C58.6879 22.2402 65.246 20.7286 67.0082 18.8426C67.4172 18.4045 67.9658 17.369 68.1178 16.7863C69.2028 12.6334 65.1723 9.73112 61.4278 9.52717C61.1708 9.51261 60.9987 9.61346 60.7618 9.65044C61.4993 10.5525 62.4603 10.799 62.6436 12.118C63.3107 16.9242 56.3368 18.6353 52.8337 19.5228C52.0906 19.7111 51.3107 19.6943 50.6391 19.8568C50.0402 20.0024 48.3171 21.1062 48.0501 21.0636C47.9774 21.0524 47.6612 20.268 47.4913 20.0685C46.4555 18.8493 42.2708 18.326 40.5399 17.647C38.4771 16.8379 37.0468 15.501 35.7316 13.7552C35.1103 12.9304 34.8924 12.3791 35.0064 11.3112C35.1193 10.2589 36.0143 9.47787 34.1549 9.66725C33.1303 9.77146 30.9882 10.8864 30.4596 11.8188C29.2551 13.9412 29.8596 16.0367 31.3044 17.8767C33.4297 20.5829 39.7052 21.671 43.0049 22.145C44.2665 22.3265 46.5617 22.1607 47.6009 22.7647C48.5305 23.3048 47.5495 23.688 46.9393 23.7542C43.1055 24.1677 33.5784 21.6441 30.2797 19.5385C26.5666 17.1685 25.0659 14.1855 28.4472 10.5985C30.3233 8.60941 32.4062 8.10963 34.8075 6.99465L38.9554 5.6914L38.9587 5.68804Z" fill="#D9CEC1"/>
<path d="M48.7518 19.1508C48.4624 19.3514 47.8992 18.1938 47.6534 17.9585C46.6142 16.9612 43.2172 16.7539 41.5322 15.8585C40.198 15.1492 37.0446 12.4138 38.6358 10.8282C39.6504 9.81742 42.3199 10.7834 43.5033 11.1879C45.5348 11.8815 47.2545 12.6491 48.1998 14.7133C50.1084 12.9013 54.0964 9.23135 56.8687 9.8219C59.7193 10.4293 60.2456 13.1019 57.9951 14.8746C55.51 16.8323 51.1163 16.6788 49.3038 18.1994C49.0122 18.4437 48.7954 19.1194 48.7496 19.1508H48.7518ZM58.0264 11.124C57.299 10.473 56.005 10.2858 55.0697 10.5133C53.7389 10.8383 50.666 13.1904 49.5374 14.1552C49.0937 14.534 48.7183 15.2534 48.0423 15.5055C47.5539 14.4925 47.164 13.7092 46.2119 13.0671C44.9336 12.2054 36.6613 8.84923 39.0526 12.9595C39.9231 14.4555 41.626 15.3677 43.2306 15.8988C45.2554 16.569 47.3807 16.4233 48.5943 18.5188C48.6602 17.6817 49.8413 17.1685 50.5408 16.904C52.8941 16.0165 55.6139 16.1196 57.6766 14.3961C58.6611 13.5736 59.0701 12.0575 58.0264 11.124Z" fill="#D9CEC1"/>
<path d="M43.6978 5.05271C44.0096 5.38888 43.0519 5.89651 42.9067 6.07805C42.329 6.79858 42.7513 7.76677 43.3056 8.37749C43.3782 7.80039 42.7469 7.07201 43.2676 6.51732C44.1772 5.55025 46.5997 6.60584 47.2546 7.58299C48.5753 5.11994 52.1209 5.77549 50.4906 8.77194C50.6482 9.11932 51.2404 8.20716 51.322 8.02002C51.8874 6.73695 50.342 5.97159 50.3375 5.76428C50.3275 5.26226 52.0092 5.55361 52.4751 5.994C54.0842 7.51464 53.0774 9.00614 51.6773 10.1211C50.97 10.6837 49.5587 11.2529 48.9653 11.7572C48.5966 12.0709 48.7597 12.8363 48.2245 12.6324C47.9585 12.5315 47.2322 11.7325 46.7059 11.4613C44.8365 10.4965 41.435 10.1693 41.3244 7.49895C41.273 6.26854 43.3927 4.72325 43.6978 5.05159V5.05271ZM48.4357 12.0228C48.9743 10.5604 52.0159 9.86451 52.6215 8.53437C53.0059 7.69169 51.9812 5.75756 51.4404 6.16209C53.1914 8.91537 50.3666 9.53058 48.6524 10.8999L48.1228 10.3643C48.7731 9.86115 51.2527 7.63342 50.0861 6.80643C48.7206 5.83824 47.3987 8.28112 47.1082 8.21613C46.6903 7.40146 44.3738 6.00969 43.6833 6.85909C42.672 8.10519 46.212 9.32663 46.8456 9.73901C47.0322 9.86115 47.6859 10.1447 47.4099 10.4405C45.5985 9.32327 42.1591 9.57316 42.2753 6.79522C41.7423 6.98572 41.8619 7.81159 42.0004 8.26095C42.5446 10.0248 47.2635 10.3475 48.4357 12.0228Z" fill="#D9CEC1"/>
<path d="M54.6016 22.1618C54.5412 21.7786 54.8418 21.7438 55.1055 21.6396C56.4006 21.1264 58.7193 21.0379 60.1697 20.6972C64.1399 19.7638 69.1403 17.8229 66.1054 12.9237C65.7892 12.4138 64.9187 11.7202 64.8706 11.626C64.5365 10.9582 65.8976 11.8558 66.0607 12.0183C67.405 13.3618 67.8799 15.4652 67.1122 17.2032C65.483 20.8888 58.0544 21.5085 54.6016 22.1629V22.1618Z" fill="#D9CEC1"/>
<path d="M32.5369 16.8783C34.5595 19.3918 37.353 19.6394 40.2628 20.2994C40.4281 20.3364 40.9936 20.5168 41.0114 20.7342C37.4614 20.5572 33.7616 19.4646 31.7492 16.3202C30.9971 15.1458 30.1714 12.7993 31.5313 11.8636C30.8351 13.688 31.3581 15.4125 32.5369 16.8772V16.8783Z" fill="#D9CEC1"/>
<path d="M54.4429 15.1895C54.8843 14.5575 55.7123 14.5284 56.3425 14.0062C57.0811 13.3954 57.5884 12.3376 57.0878 11.4288L55.3927 10.9145C59.8322 10.5817 57.1783 14.9598 54.444 15.1884L54.4429 15.1895Z" fill="#D9CEC1"/>
<path d="M44.6476 15.6658C43.3826 15.4036 39.5577 13.6947 39.5789 12.2581C39.5868 11.6899 40.1701 11.365 40.2248 11.7908C40.2505 11.9869 39.9455 12.1203 39.9767 12.3477C40.1611 13.6824 43.7346 14.8702 44.6476 15.6658Z" fill="#D9CEC1"/>
</g>
<defs>
<clipPath id="clip0_263_35086">
<rect width="99" height="72" fill="white"/>
</clipPath>
</defs>
</svg>
