<?xml version="1.0" encoding="UTF-8"?>
<svg id="Layer_4" xmlns="http://www.w3.org/2000/svg" version="1.1" viewBox="0 0 219.68 125">
  <!-- Generator: Adobe Illustrator 30.0.0, SVG Export Plug-In . SVG Version: 2.1.1 Build 123)  -->
  <defs>
    <style>
      .st0 {
        isolation: isolate;
      }
    </style>
  </defs>
  <g class="st0">
    <g class="st0">
      <path d="M7.5,39.33c0-12.18,8.93-22.01,20.62-22.01,3.5,0,5.54,1,6.89,1s1.81-.94,3.11-.94c1.02,0,1.64.59,2.32,3.12.62,2.06,1.24,4.53,1.75,8.06.23,1.59-.06,2.53-1.3,2.65-1.19.12-1.7-.82-2.83-2.59-2.6-3.94-5.88-7.36-10.85-7.36-7.23,0-11.58,6.3-11.58,14.36,0,10.18,5.25,18.83,14.13,18.83,4.69,0,8.08-2.12,11.07-5.47,1.36-1.53,2.94.12,1.98,2-2.09,4.47-8.02,8.71-15.76,8.71-11.53,0-19.55-7.89-19.55-20.36Z"/>
      <path d="M110.61,28.91c-1.07.35-1.75-.18-2.71-1.71-2.2-3.71-4.58-5.59-8.25-5.59h-2.6c-4.24,0-5.03.82-5.03,2.65v6.65c0,2.47,1.36,2.88,3.79,2.88h1.07c4.75,0,4.35-2,6.27-2,1.07,0,1.47.71,1.69,1.77l1.41,6.65c.4,2.12.11,2.65-.96,2.94-2.66.65-2.99-5.71-8.42-5.71h-1.07c-2.43,0-3.79.35-3.79,2.88v8.95c0,7,3.56,5.36,3.56,8.18,0,1.24-.79,1.65-3.11,1.65h-8.98c-2.26,0-3.16-.41-3.16-1.65,0-2.82,3.73-1.18,3.73-8.18v-21.36c0-7.65-3.73-5.3-3.73-8.36,0-1.29.9-1.65,3.16-1.65h21.75c3.28,0,4.12.29,4.75,2.06.51,1.59,1.07,3.59,1.47,6.06.28,1.59.17,2.59-.85,2.88Z"/>
      <path d="M144.05,28.91c-1.07.35-1.75-.18-2.71-1.71-2.2-3.71-4.58-5.59-8.25-5.59h-2.6c-4.24,0-5.03.82-5.03,2.65v6.65c0,2.47,1.36,2.88,3.79,2.88h1.07c4.75,0,4.35-2,6.27-2,1.07,0,1.47.71,1.69,1.77l1.41,6.65c.4,2.12.11,2.65-.96,2.94-2.66.65-2.99-5.71-8.42-5.71h-1.07c-2.43,0-3.79.35-3.79,2.88v8.95c0,7,3.56,5.36,3.56,8.18,0,1.24-.79,1.65-3.11,1.65h-8.98c-2.26,0-3.16-.41-3.16-1.65,0-2.82,3.73-1.18,3.73-8.18v-21.36c0-7.65-3.73-5.3-3.73-8.36,0-1.29.9-1.65,3.16-1.65h21.75c3.28,0,4.12.29,4.75,2.06.51,1.59,1.07,3.59,1.47,6.06.28,1.59.17,2.59-.85,2.88Z"/>
      <path d="M178.74,49.51c-.11,3.24-.4,5.47-.85,7.12-.45,1.77-1.3,2.47-4.75,2.47h-22.77c-2.26,0-3.16-.35-3.16-1.65,0-3.06,3.73-.71,3.73-8.36v-21.19c0-7.65-3.73-5.3-3.73-8.36,0-1.29.9-1.65,3.16-1.65h21.87c3.28,0,4.07.29,4.69,2.06.51,1.59,1.07,3.59,1.47,6.06.28,1.59.17,2.59-.85,2.88-1.07.35-1.75-.18-2.66-1.71-2.2-3.71-4.58-5.59-8.31-5.59h-2.66c-4.24,0-5.03.82-5.03,2.71v6c0,2.53,1.36,2.88,3.79,2.88h.56c4.69,0,4.35-2,6.27-2,1.07,0,1.47.71,1.7,1.77l1.36,6.71c.45,2.12.17,2.65-.9,2.88-2.71.65-3.05-5.65-8.42-5.65h-.56c-2.43,0-3.79.29-3.79,2.88v12.83c0,1.94.79,2.77,5.37,2.77l3.73-.06c3.96,0,5.14-2.18,7.01-6.3.9-2,1.64-2.47,2.54-2.24,1.19.24,1.24,1.12,1.19,2.71Z"/>
      <path d="M213.94,49.51c-.11,3.24-.4,5.47-.85,7.12-.45,1.77-1.3,2.47-4.75,2.47h-22.77c-2.26,0-3.16-.35-3.16-1.65,0-3.06,3.73-.71,3.73-8.36v-21.19c0-7.65-3.73-5.3-3.73-8.36,0-1.29.9-1.65,3.16-1.65h21.87c3.28,0,4.07.29,4.69,2.06.51,1.59,1.07,3.59,1.47,6.06.28,1.59.17,2.59-.85,2.88-1.07.35-1.75-.18-2.66-1.71-2.2-3.71-4.58-5.59-8.31-5.59h-2.66c-4.24,0-5.03.82-5.03,2.71v6c0,2.53,1.36,2.88,3.79,2.88h.57c4.69,0,4.35-2,6.27-2,1.07,0,1.47.71,1.7,1.77l1.36,6.71c.45,2.12.17,2.65-.9,2.88-2.71.65-3.05-5.65-8.42-5.65h-.57c-2.43,0-3.79.29-3.79,2.88v12.83c0,1.94.79,2.77,5.37,2.77l3.73-.06c3.96,0,5.14-2.18,7.01-6.3.9-2,1.64-2.47,2.54-2.24,1.19.24,1.24,1.12,1.19,2.71Z"/>
    </g>
  </g>
  <g class="st0">
    <g class="st0">
      <path d="M55.88,95.77c0,6.88,3.39,5.24,3.39,7.77,0,1.06-.79,1.41-2.94,1.41h-7.63c-2.03,0-2.94-.35-2.94-1.41,0-2.53,3.5-.88,3.5-7.77v-8.42q0-2.65-9.83-2.65-10.28,0-10.28,2.65v8.42c0,6.88,3.45,5.24,3.45,7.77,0,1.06-.79,1.41-2.99,1.41h-7.57c-2.09,0-2.99-.35-2.99-1.41,0-2.53,3.56-.88,3.56-7.77v-22.84c0-6.89-3.45-5.24-3.45-7.77,0-1.06.79-1.41,2.99-1.41h7.57c2.09,0,2.99.35,2.99,1.41,0,2.53-3.56.88-3.56,7.77v5.89q0,2.65,10.34,2.65,9.77,0,9.77-2.65v-5.89c0-6.89-3.39-5.24-3.39-7.77,0-1.06.79-1.41,2.94-1.41h7.63c2.03,0,2.94.35,2.94,1.41,0,2.53-3.5.88-3.5,7.77v22.84Z"/>
      <path d="M100.68,87.82v-14.83c0-6.83-3.45-5.24-3.45-7.77,0-1.06.79-1.41,3-1.41h7.57c2.09,0,2.99.35,2.99,1.41,0,2.53-3.56.94-3.56,7.77v16.07c0,8.18,3.9,12.59,10.51,12.59s10.51-5.41,10.51-13.18l-.11-17.48c.06-4.41-3-3.83-3-5.83,0-1.12.79-1.41,2.6-1.41h4.35c1.81,0,2.6.29,2.6,1.41,0,1.94-3.05,1.41-3.05,5.83l-.06,16.36c0,11.71-4.86,18.19-15.37,18.19s-15.54-6.24-15.54-17.71Z"/>
      <path d="M145.25,104.6c-1.53,0-1.81.88-2.83.88s-1.69-.71-2.09-3.18c-.39-2.35-.85-5-1.13-8.42-.11-1.41.11-2.35,1.07-2.35.9,0,1.47.65,2.32,2.24,1.64,3.65,4.8,8.36,11.36,8.42,4.8,0,6.95-3,7.06-6.24.17-4.53-4.8-6.59-9.55-9-5.99-3.12-11.53-5.47-11.53-12.54,0-5.94,5.14-11.12,13.67-11.12,2.6,0,4.8.71,6.27.71,1.36,0,1.64-.71,2.66-.71,1.07,0,1.53.59,2.09,3.06.4,1.94.85,4.12,1.19,6.89.17,1.35-.11,2.29-1.13,2.29-.85,0-1.53-.71-2.43-2.18-1.87-2.94-4.97-6.89-9.66-6.89-4.18,0-6.38,2.41-6.38,5.71,0,4.12,3.73,5.83,9.32,8.77,6.27,3.24,12.09,5.47,12.26,12.3.17,7.65-6.89,12.24-14.46,12.3-4.24,0-6.5-.94-8.08-.94Z"/>
      <path d="M202.83,95.95c-.17,3.06-.45,5.06-.9,6.77-.4,1.53-1.07,2.24-4.63,2.24h-22.21c-2.09,0-2.99-.24-2.99-1.41,0-2.65,3.56-.53,3.56-7.59v-23.19c0-7.06-3.56-4.94-3.56-7.59,0-1.18.9-1.41,2.99-1.41l21.42-.06c3.28,0,3.9.35,4.41,1.94.57,1.59,1.07,3.59,1.47,6.18.23,1.35.17,2.24-.74,2.53-1.02.29-1.64-.29-2.49-1.83-2.09-3.71-4.46-5.59-8.31-5.59h-2.88c-4.97,0-5.76.82-5.76,2.71v6.53c0,2.65,1.53,2.88,4.01,2.88h1.07c5.25,0,4.63-1.94,6.38-1.94.9,0,1.3.59,1.58,1.82l1.24,5.83c.45,2.18.23,2.65-.73,2.94-2.32.59-2.66-5.47-8.48-5.53h-1.07c-2.49,0-4.01.24-4.01,2.88v13.89c0,2,.79,2.82,5.93,2.82l4.07-.06c4.41,0,5.48-1.94,7.18-5.83.9-2,1.58-2.47,2.43-2.29.96.24,1.07,1.06,1.02,2.35Z"/>
    </g>
  </g>
  <g>
    <path d="M98.96,83.07c-.32-.49-.73-.84-1.12-1.22-.16.3-.34.73-.42,1.25-.1.65,0,1.18.09,1.52,1.51,2.65.99,6.08-1.3,7.84-.61.47-1.29.77-1.99.91-.33.64-.78,1.21-1.35,1.65-.26.2-.55.36-.83.49,1.82.35,3.73-.04,5.33-1.27,3.26-2.5,3.97-7.51,1.59-11.18h0Z"/>
    <g>
      <path d="M72.4,81.16c-.37-.62-2.31-.79-2.59-1.62-.24-1.41.7-2.5.69-3.9-4.57.85-7.57,2.29-7.57,3.91,0,1.9,4.12,3.54,10.05,4.29-.76-.68-.12-1.9-.58-2.68Z"/>
      <path d="M80.34,74.8c-2.51,0-4.88.15-7.04.41-.08,1.07-.08,2.3.77,3.06.27.24,2.96,1.56,3.39,1.69.46.14.95-.12,1.41-.02,1.7.39,2.39,1.25,2.79,2.97-.5.49-2.43-1.77-3.97-1.29-1,.32-1.35,1.89-2.44,2.46,1.61.13,3.32.21,5.09.21,2.79,0,5.42-.18,7.76-.5-.31-.74-.16-2.73-1.43-3.4-.25-.13-2.55-.62-2.9-.63-.38-.01-.7.28-1.07.28-1.37.03-2.05-.49-2.69-1.72.29-.47,2.19.88,3.26.22.93-.57.56-2.61,2.39-2.72,1.67-.09,1.1,1.42,1.72,2.05.4.4,1.9.16,2.28.74.48,1.08-.12,2.14.27,3.27.22.61.85.94,1.11,1.41,4.08-.87,6.72-2.22,6.72-3.74,0-2.62-7.8-4.74-17.42-4.74h0Z"/>
    </g>
  </g>
  <g>
    <path d="M80.34,10.8c0,.87-.07,2.89-.57,3.5-.17.2-4.28,2.4-4.63,2.42-.94.05-1.84-.51-2.72-.5-1.18.01-2.52.79-3.83.43-.59-2.4-.52-3.78.88-5.85h10.87ZM79.44,11.7c-1.17-.07-1.72,1.34-2.94,1.33-.79,0-1.45-.81-2.28-.87-.64-.04-1.27.39-1.84.4-1.16,0-4.26-.88-3.31,2.02.21.66,6.11,1.4,6.89,1.2.48-.12.51-1.06.97-1.38,1.11-.78,2.85-.66,2.52-2.7h-.01Z"/>
    <path d="M73.09,18.04c.53.74-1.72,4.12-2.25,4.94,4.59-.52,2.5,3.41,2.71,3.61.06.06,1.01-.01,1.6.43,1.45,1.06,2.89,4.75,2.96,6.57.04,1.2-.54,2.73-.38,3.5.18.9,1.18,1.67,1.28,3.29.29,4.89-2.29,4.38-4.14,6.75-.47.6.01,1.23-.37,1.82-2.43,3.74-3.62,3.9-7.24,5.44-.65.27-1.2,1.38-2.14,1.46-1.06.1-1.63-1.17-2.62-1.22-1.31-.07-3.61.86-5.23.41-.37,7.16,10.28,4.65,12.02,10.83,1.49,5.3-4.53-.46-5.47-.43-2.58,1.64-4,4.16-7.6,3.06-2.18-.66-1.27-4.51-1.74-5.27-.18-.29-1.79-.24-2.13-1.27l.39-8.28c-2.11-.11-4.35,1.32-6.15-.44-.72-.7-.15-1.26-.42-1.79-.67-1.31-2.05-3.2-2.86-4.37-2.99-4.35.11-4.13.26-5.81.06-.69-1.56-1.88-1.15-3.96.05-.27,2-4.87,2.16-5.1.5-.74,1.72-1.02,2.05-1.57.65-1.09.17-3.49,1.34-4.53.89-.79,3.37-1.12,4.51-1.84.76-.48,1.02-1.75,2.42-2.07,2.05-.48,3.73.24,5.71.36,1.24-3.9,3.97-2.01,6.29-2.36,1.48-.23,4.94-3.93,6.21-2.17h-.02ZM59.85,28.73c.26-.3.22-1.06.56-1.45,2.76-3.13,11.46-2.28,11.33-8.81-1.47.46-2.21,1.95-3.69,2.41-1.65.52-4.45-.14-5.05.25-.73.48-.65,2.27-1.99,2.68l-5.73-.76c-1.15.38-.12,1.49-.72,1.96-1.36,1.06-3.38,1.1-5.01,1.36-.79.45-1.17,3.55-1.68,4.63-.35.73-1.83,1.41-2.07,2.04-.38.98-.25,2.36-.74,3.19-.4.68-2.15.73-1.87,2.31,4.07,2.38-.18,3.02.13,5.8.2,1.8,1.47,2.1,1.92,3.05.33.69.16,1.53.49,2.23.37.81,2.43,2.32,2.93,3.43l4.52-.25-.46-3.83.9-.23c.28,1.29,1.12,3.15,2.3,3.81.27.15,3.72,1.51,3.93,1.54,1.2.19,2.23-.66,3.41-.31.68.2,1.12,1.39,1.85,1.26.56-1.22,3-1.54,3.36-1.9.2-.2-.02-.91.4-1.25.88-.73,2.79-1.39,3.56-2.22s.84-1.97,1.56-2.95c.79-1.07,2.62-2.16,3.63-3.16-2.16-.73-.06-3.21,0-4.74l-1.35,1.13c-2.1.93.66-4.38.73-4.73.33-1.72-1.26-6.26-2.49-7.39-.64-.58-1.76-.07-2.29-.97l.89-2.03c-3.19-1.79-2.85-.17-4.98.67-1.26.5-4.97.98-5.78,1.69-.35.3-.27,1.04-.53,1.37-.74.94-1.93.77-1.39,3.04h-1.8l1.35-1.81c-1.27-.07-2.74,1.29-2.7,2.49.02.91,1.51,1.18.22,2.01-1.96-1.4-1.09-3.18.44-4.52.59-.52,1.6-.65,1.92-1.02v-.02ZM57.26,53.7l-2.94-1.8c-1.89,1.62-.57,3.53-.64,5.19-.06,1.44-.91,3.53-.52,4.91.14.49,1.62.25,2.1,1.19.41.81-.69,4.54,1.79,4.98,3.33.59,4.73-3.11,6.78-3.22,2.57-.15,2.59,2.77,5.2,2.3-.87-5.72-7.99-4.85-11.11-8.1-.93-.97-1.83-2.53-1.1-3.82l-.91-.27,1.35-1.34v-.02Z"/>
    <path d="M76.7,47.38c-.29,1.38,1.01,2.63.93,3.8-.1,1.47-2.49,5.93-2.3,6.74.11.44.97.43,1.18.74.32.48-.2,1.21-.04,1.82.65,2.53,5.8,3.03,5.26,6.52-.28,1.81-3.73.94-4.89.36-.91-.45-1.1-1.64-1.76-1.85-1.6-.52-2.99.84-3.67-1.76-.45-1.72-.09-4.02-.29-5.33-.1-.66-1.65-1.18-1.19-3.05,2.54-1.78,5.24-4.83,5.47-7.99h1.31,0ZM80.79,67.25c.67-3.16-3.59-3.44-4.75-4.97-.24-.32-1.44-3.53-1.51-3.96-.03-.21.5-3.84.59-4.17.4-1.38,2.19-2.9,1.37-4.51-1.15.93-1.89,2.74-2.68,3.65s-2.46,1.32-2.89,2.55c-.66,1.9,1.06,1.5,1.21,2.18.09.39-.41,1.12-.35,1.73.09.85.55,4.68,1.16,4.81,1.09.1,2.43-.25,3.47.06.95.29.96,1.41,1.54,1.77.74.45,2.04-.11,2.84.86Z"/>
    <path d="M82.16,73.57c-.3-3.92,2.47-6.29,3.58-9.62-1.93-1.33-1.32-4.51,1.11-4.75.49.09,1.97,1.76,2.21,2.3.37.82,1.38,4.74,1.25,5.49-.12.69-.83,1.2-.9,1.86-.07.78.56,1.44.27,2.47-.62,2.23-1.95.84-3.19.91-1.32.07-2.7,1.81-4.32,1.34h0ZM87.12,60.02c-.66-.46-1.63,1.07-1.77,1.65-.13.54,1.38.64.85,3.07-.58,2.62-2.73,4.22-3.2,7.17-.04.25-.72,1.18.28,1.2.31,0,2.37-1.58,3.23-1.66.73-.07,1.61.49,2.43.32.3-1.06-.56-2.38-.36-3.28.12-.56.9-1.08,1.09-1.68.54-1.61-1.78-5.23-2.55-6.78h0Z"/>
    <path d="M65.73,48.6c-1.02.81-2.88.47-4.28.93-1.61.53-3.2,3.46-4.43,1.46-.25-.41-.5-5.88-.57-7.12-.04-.83.5-1.65.28-2.49-.27-1.04-3.21-2.62-3.08-5.09.05-.94,1.49-1.99,2.39-1.91,1.6.14,1.16,1.92,2.56,1.71.76-5.02,2.04-3.81,4.85-.96,1.59.41,4.71-4.09,6.94-.19,1.17,2.04-.45,3.14-.5,5-.03,1.19.74,2.33.4,3.5-.1.33-4.24,4.89-4.58,5.16h.02ZM61.04,35.02c-.26-.42.04-1.1-.39-1.19-.91.78-.49,1.95-1.11,2.96-1.15,1.9-2.89,1.18-3.16-.88l-1.39-.27c-.31,2.3,2.26,3.68,2.62,5.28.65,2.87.33,6.27.1,9.16,3.12.08,3.65-4.17,6.99-1.81l.7-1.35-2.26-.45c2.57.76,5.61-2.26,6.15-4.49.13-.54-.65-.98-.67-1.58s.46-1.26.43-1.86-.27-3.94-.46-4.06c-1.67-1.08-2.34.97-3.19,1.36-1.37.62-3.53.5-4.36-.84v.02Z"/>
  </g>
  <path d="M92.35,95.63c-3.29,3.7-7.76,5.98-12.7,5.98s-9.41-2.28-12.7-5.98c-3.63.87-5.92,2.1-5.92,3.47,0,2.63,8.33,4.76,18.61,4.76s18.61-2.13,18.61-4.76c0-1.37-2.28-2.61-5.92-3.47h.02Z"/>
</svg>